<?xml version="1.0" encoding="UTF-8"?>
<svg xmlns="http://www.w3.org/2000/svg" xmlns:xlink="http://www.w3.org/1999/xlink" width="67px" height="67px" viewBox="0 0 67 64" version="1.1">
<g id="surface1">
<path style=" stroke:none;fill-rule:nonzero;fill:rgb(100%,100%,100%);fill-opacity:1;" d="M 60.15625 30.597656 C 60.15625 44.808594 48.515625 56.332031 34.152344 56.332031 C 19.789062 56.332031 8.148438 44.808594 8.148438 30.597656 C 8.148438 16.382812 19.789062 4.863281 34.152344 4.863281 C 48.515625 4.863281 60.15625 16.382812 60.15625 30.597656 Z M 60.15625 30.597656 "/>
<path style=" stroke:none;fill-rule:nonzero;fill:rgb(27.45098%,54.509804%,79.215686%);fill-opacity:1;" d="M 38.195312 23.980469 C 37.714844 24.019531 35.839844 26.195312 33.074219 26.140625 C 30.46875 26.097656 30.011719 24.546875 29.195312 24.375 C 28.691406 24.25 26.835938 24.761719 24.894531 26.453125 C 22.949219 28.148438 22.289062 32.644531 25.148438 30.0625 C 28.007812 27.484375 29.082031 29.59375 29.082031 29.59375 C 29.433594 31.375 29.285156 35.066406 29.285156 35.066406 L 39.121094 35.339844 C 39.121094 35.339844 38.847656 31.375 39.164062 29.652344 C 39.164062 29.644531 39.886719 28.132812 43.222656 29.929688 C 46.398438 31.628906 45.085938 23.410156 38.195312 23.980469 Z M 38.195312 23.980469 "/>
<path style=" stroke:none;fill-rule:nonzero;fill:rgb(9.019608%,25.882353%,56.078431%);fill-opacity:1;" d="M 51.042969 32.113281 C 51.0625 31.957031 50.882812 31.851562 50.765625 31.949219 C 50.1875 32.402344 49.570312 33.308594 47.253906 33.402344 C 46.105469 33.449219 47.320312 33.894531 45.414062 36.757812 C 45.292969 36.921875 45.175781 37.09375 45.054688 37.269531 C 44.933594 37.433594 44.800781 37.605469 44.648438 37.785156 C 44.207031 38.324219 43.863281 38.839844 43.597656 39.3125 C 42.277344 41.101562 39.480469 46.011719 44.84375 43.984375 C 49.339844 42.28125 50.507812 36.007812 50.800781 33.582031 C 50.800781 33.410156 50.9375 32.816406 50.929688 32.785156 Z M 51.042969 32.113281 "/>
<path style=" stroke:none;fill-rule:nonzero;fill:rgb(98.431373%,75.294118%,5.098039%);fill-opacity:1;" d="M 18.832031 34.746094 C 18.21875 34.578125 17.585938 34.644531 17.648438 35.273438 C 17.894531 37.777344 18.90625 42.3125 22.890625 43.820312 C 28.496094 45.945312 26.539062 40.789062 24.691406 40.054688 C 21.757812 38.882812 22.589844 36.03125 20.84375 35.347656 C 20.128906 35.066406 19.828125 35.023438 18.832031 34.746094 Z M 18.832031 34.746094 "/>
<path style=" stroke:none;fill-rule:nonzero;fill:rgb(90.196078%,14.901961%,41.960784%);fill-opacity:1;" d="M 46.300781 35.867188 C 44.523438 35.851562 44.109375 39.164062 41.207031 39.742188 C 39.113281 40.160156 38.46875 39.890625 37.160156 40.433594 C 37.109375 40.457031 37.054688 40.480469 37.003906 40.5 C 36.988281 40.507812 36.972656 40.515625 36.964844 40.515625 C 36.945312 40.523438 36.929688 40.53125 36.90625 40.546875 C 36.890625 40.554688 36.875 40.5625 36.859375 40.566406 C 36.839844 40.582031 36.816406 40.589844 36.785156 40.605469 C 34.699219 41.601562 32.757812 41.398438 31.601562 40.828125 C 31.535156 40.789062 31.464844 40.753906 31.398438 40.714844 C 31.390625 40.714844 31.390625 40.710938 31.382812 40.710938 C 31.332031 40.679688 31.277344 40.648438 31.226562 40.628906 C 29.605469 39.816406 29.058594 40.195312 26.746094 39.738281 C 23.835938 39.15625 23.429688 35.847656 21.652344 35.859375 C 19.875 35.875 20.109375 37.25 20.109375 37.25 C 20.609375 41.984375 25.1875 43.152344 26.378906 43.476562 C 27.574219 43.804688 28.226562 44.703125 28.324219 47.894531 C 28.375 49.796875 30.101562 50.570312 31.488281 50.878906 C 31.496094 50.878906 31.722656 50.941406 32.105469 50.992188 C 32.113281 50.992188 32.113281 50.992188 32.121094 50.992188 C 32.75 51.089844 33.800781 51.183594 35.023438 51.082031 C 36.050781 51.023438 39.5625 50.621094 39.644531 47.894531 C 39.734375 44.703125 40.386719 43.804688 41.589844 43.476562 C 42.78125 43.152344 47.359375 41.984375 47.859375 37.25 C 47.84375 37.257812 48.078125 35.882812 46.300781 35.867188 Z M 46.300781 35.867188 "/>
<path style=" stroke:none;fill-rule:nonzero;fill:rgb(9.019608%,25.882353%,56.078431%);fill-opacity:1;" d="M 61.148438 26.503906 C 61.539062 26.371094 60.269531 24.21875 60.074219 23.855469 C 60.121094 23.59375 59.992188 23.363281 59.925781 23.121094 C 59.863281 22.941406 59.804688 22.757812 59.746094 22.570312 C 59.566406 22.015625 59.585938 21.425781 59.527344 20.855469 C 59.527344 20.855469 58.851562 18.953125 58.597656 18.886719 C 58.207031 18.613281 57.921875 18.25 57.628906 17.886719 C 57.425781 17.597656 57.230469 17.3125 57.027344 17.023438 C 56.820312 16.636719 56.457031 16.347656 56.316406 15.917969 C 56.257812 15.578125 56.113281 15.292969 55.804688 15.117188 C 55.304688 14.796875 54.980469 14.300781 54.554688 13.898438 C 54.378906 13.675781 54.214844 13.453125 54.035156 13.238281 C 53.894531 13.058594 52.535156 10.871094 52.121094 11.003906 C 52.085938 10.90625 52.078125 10.78125 52 10.722656 C 51.042969 9.835938 50.230469 8.828125 49.339844 7.878906 C 49.105469 7.625 48.796875 7.304688 48.5 7.277344 C 47.769531 7.195312 47.109375 6.859375 46.382812 6.808594 C 45.691406 6.683594 44.988281 6.621094 44.402344 6.175781 C 44.054688 5.917969 43.703125 5.664062 43.269531 5.546875 C 42.789062 5.210938 42.046875 5.242188 41.84375 4.527344 C 41.820312 4.121094 40.214844 3.859375 40.066406 4.023438 C 39.570312 4.246094 39.128906 4.0625 38.640625 3.941406 C 37.625 3.683594 36.589844 3.503906 35.5625 3.296875 C 35.234375 3.230469 34.925781 3.132812 34.761719 2.800781 C 32.953125 2.800781 28.398438 3.453125 27.902344 3.601562 C 26.621094 3.988281 25.375 4.402344 24.203125 5.078125 C 24.054688 5.160156 23.910156 5.265625 23.769531 5.359375 C 23.410156 5.613281 23.035156 5.859375 22.570312 5.894531 C 22.125 5.835938 18.605469 8.0625 18.351562 8.210938 C 17.804688 8.53125 17.269531 8.894531 16.679688 9.148438 C 16.234375 9.332031 15.867188 9.628906 15.464844 9.875 C 14.585938 10.402344 13.941406 11.179688 13.128906 11.777344 C 12.320312 12.371094 11.6875 13.105469 11.351562 14.097656 C 11.015625 15.101562 10.789062 16.171875 10.097656 17.039062 C 9.796875 17.105469 8.957031 18.339844 8.980469 18.421875 C 8.582031 19.601562 7.675781 20.523438 7.34375 21.792969 C 7.074219 22.851562 6.535156 23.863281 6.445312 24.992188 C 6.445312 25.457031 6.445312 25.917969 6.445312 26.386719 C 6.316406 27.21875 6.199219 28.058594 6.070312 28.890625 C 6.070312 29.246094 6.070312 29.601562 6.070312 29.957031 C 6.03125 30.6875 5.671875 32.089844 5.671875 32.089844 C 5.507812 32.191406 5.386719 35.800781 5.613281 35.851562 C 5.746094 36.136719 5.867188 36.410156 5.949219 36.714844 C 6.300781 38.019531 6.542969 39.351562 7.046875 40.628906 C 7.675781 42.230469 8.28125 43.835938 9.054688 45.371094 C 9.632812 46.507812 10.308594 47.597656 10.789062 48.773438 C 11.367188 50.199219 12.066406 51.46875 13.488281 52.21875 C 13.871094 52.484375 14.253906 52.75 14.636719 53.019531 C 14.929688 53.242188 15.253906 53.40625 15.53125 53.664062 C 16.3125 54.398438 17.136719 55.074219 17.953125 55.773438 C 18.953125 56.628906 20.109375 57.234375 21.269531 57.824219 C 23.347656 58.863281 25.472656 59.789062 27.859375 59.84375 C 29.117188 59.871094 30.332031 60.050781 31.535156 60.480469 C 32.34375 60.769531 33.175781 61.261719 34.0625 61.113281 C 35.871094 60.808594 37.722656 60.800781 39.496094 60.257812 C 40.785156 59.863281 42.105469 59.546875 43.214844 58.742188 C 43.710938 58.386719 44.328125 58.28125 44.8125 57.910156 C 45.1875 57.621094 45.632812 57.496094 46.089844 57.371094 C 47.546875 56.96875 49.039062 56.640625 50.117188 55.433594 C 50.679688 54.800781 51.328125 54.242188 51.941406 53.648438 C 52.339844 53.300781 52.578125 52.832031 52.894531 52.417969 C 53.496094 51.429688 54.191406 50.496094 54.980469 49.664062 C 56.210938 48.371094 57.433594 47.101562 58.199219 45.476562 C 58.328125 45.199219 58.484375 44.941406 58.640625 44.679688 C 59.933594 42.542969 61.246094 40.417969 61.644531 37.894531 C 61.769531 37.0625 62.183594 36.179688 62.019531 35.414062 C 61.613281 33.515625 61.867188 31.570312 61.46875 29.683594 C 61.386719 29.371094 61.058594 26.804688 61.148438 26.503906 Z M 10.078125 17.144531 C 10 17.160156 9.957031 17.1875 9.925781 17.21875 C 9.957031 17.1875 10.007812 17.164062 10.078125 17.144531 Z M 53.441406 39.953125 C 52.683594 41.644531 51.800781 43.285156 51.011719 44.964844 C 50.042969 47.019531 48.316406 48.410156 46.675781 49.871094 C 46.351562 50.152344 46.023438 50.429688 45.714844 50.730469 C 45.105469 51.320312 44.347656 51.652344 43.53125 51.875 C 41.519531 52.433594 39.578125 53.191406 37.679688 54.042969 C 36.847656 54.414062 35.929688 54.265625 35.066406 54.421875 C 33.582031 54.703125 32.1875 54.230469 30.761719 54.082031 C 29.195312 53.917969 27.96875 52.914062 26.582031 52.320312 C 25.734375 51.957031 24.863281 51.847656 23.988281 51.765625 C 23.230469 51.691406 22.441406 51.675781 21.839844 51.191406 C 21.15625 50.644531 20.585938 49.960938 19.933594 49.375 C 18.945312 48.484375 18.105469 47.457031 17.175781 46.515625 C 16.714844 46.054688 16.476562 45.445312 16.199219 44.875 C 15.507812 43.464844 14.847656 42.046875 14.179688 40.621094 C 13.332031 38.800781 12.71875 36.894531 12.09375 34.984375 C 12.050781 34.851562 11.988281 34.71875 11.9375 34.578125 C 11.929688 34.488281 11.921875 34.40625 11.921875 34.316406 C 11.96875 33.828125 10.976562 31.808594 11.398438 31.117188 C 11.433594 31.101562 12.003906 29.148438 11.855469 29.082031 C 11.808594 28.652344 12.09375 27.851562 12.09375 27.851562 C 12.09375 27.851562 12.304688 26.15625 12.539062 25.726562 C 13.09375 24.753906 13.011719 23.515625 13.828125 22.644531 C 13.863281 22.601562 13.828125 22.488281 13.820312 22.398438 C 13.925781 21.941406 13.976562 21.449219 14.398438 21.121094 C 14.699219 20.855469 14.914062 20.542969 14.953125 20.128906 C 14.976562 19.675781 15.367188 19.453125 15.589844 19.132812 C 15.882812 18.746094 16.28125 18.441406 16.5 18.003906 C 17 17.582031 17.503906 17.164062 18 16.742188 C 19.816406 15.828125 21.097656 14.285156 22.539062 12.933594 C 22.757812 12.800781 22.964844 12.667969 23.183594 12.53125 C 25.3125 11.546875 27.582031 10.964844 29.855469 10.445312 C 31.21875 10.132812 32.628906 10.195312 34.023438 10.164062 C 34.871094 10.148438 35.726562 10.164062 36.574219 10.148438 L 37.332031 10.164062 C 37.761719 10.207031 38.167969 10.335938 38.535156 10.558594 C 40.359375 11.65625 42.292969 12.523438 44.265625 13.3125 C 44.550781 13.421875 44.800781 13.625 45.046875 13.816406 C 46.074219 14.617188 47.320312 15.101562 48.289062 15.984375 C 49.257812 16.808594 50.628906 17.269531 50.90625 18.738281 C 51.289062 19.097656 51.320312 19.609375 51.507812 20.054688 C 52.183594 21.644531 53.230469 23.007812 54.101562 24.480469 C 54.273438 24.753906 54.269531 25.117188 54.515625 25.363281 C 54.53125 25.445312 54.546875 25.53125 54.558594 25.613281 C 54.539062 25.6875 54.582031 25.710938 54.644531 25.726562 L 54.65625 25.742188 C 54.746094 25.984375 54.839844 26.230469 54.929688 26.476562 C 54.867188 26.945312 54.972656 27.359375 55.289062 27.722656 C 55.5 27.976562 55.664062 28.242188 55.535156 28.59375 C 55.304688 28.933594 55.371094 29.269531 55.574219 29.59375 C 55.851562 30.128906 55.558594 30.613281 55.4375 31.109375 C 55.4375 31.21875 55.4375 31.332031 55.4375 31.441406 C 55.492188 31.800781 55.828125 32.132812 55.65625 32.503906 C 55.3125 33.238281 55.46875 34.011719 55.429688 34.769531 C 55.039062 36.601562 54.199219 38.265625 53.441406 39.953125 Z M 53.441406 39.953125 "/>
<path style=" stroke:none;fill-rule:nonzero;fill:rgb(6.27451%,27.058824%,55.686275%);fill-opacity:1;" d="M 8.425781 35.253906 C 7.519531 35.253906 6.632812 35.125 5.574219 34.941406 L 5.53125 34.933594 L 5.484375 34.917969 C 5.3125 34.851562 5.160156 34.761719 5.027344 34.6875 C 4.832031 34.570312 4.703125 34.503906 4.578125 34.503906 L 4.367188 34.507812 L 4.214844 34.382812 C 3.828125 34.054688 3.917969 33.632812 3.960938 33.449219 C 3.96875 33.425781 3.96875 33.402344 3.976562 33.382812 L 4.5625 32.5625 C 4.792969 32.207031 5.125 31.910156 5.542969 31.679688 L 5.589844 31.660156 L 5.640625 31.644531 C 5.761719 31.605469 5.882812 31.5625 6.007812 31.515625 C 6.292969 31.421875 6.585938 31.316406 6.902344 31.25 C 7.519531 31.109375 8.125 31.035156 8.695312 31.035156 C 9.648438 31.035156 10.554688 31.234375 11.398438 31.621094 C 12.304688 32.042969 12.574219 32.757812 12.175781 33.683594 C 11.757812 34.65625 10.894531 34.949219 10.023438 35.117188 C 9.511719 35.199219 8.996094 35.253906 8.425781 35.253906 Z M 8.613281 33.375 C 9.132812 33.375 9.589844 33.320312 10.015625 33.210938 C 9.4375 32.996094 8.867188 32.890625 8.320312 32.890625 C 7.78125 32.890625 7.246094 32.996094 6.730469 33.203125 C 7.316406 33.300781 7.921875 33.359375 8.554688 33.375 C 8.574219 33.375 8.597656 33.375 8.613281 33.375 Z M 8.613281 33.375 "/>
<path style=" stroke:none;fill-rule:nonzero;fill:rgb(98.431373%,75.294118%,5.098039%);fill-opacity:1;" d="M 4.734375 33.386719 C 4.90625 32.808594 5.28125 32.402344 5.800781 32.113281 C 6.203125 31.984375 6.601562 31.820312 7.023438 31.726562 C 8.441406 31.398438 9.835938 31.441406 11.179688 32.066406 C 11.847656 32.378906 11.996094 32.785156 11.703125 33.460938 C 11.375 34.226562 10.667969 34.449219 9.925781 34.597656 C 8.5 34.878906 7.089844 34.6875 5.679688 34.433594 C 5.296875 34.285156 4.703125 33.46875 4.734375 33.386719 Z M 8.546875 33.886719 C 9.132812 33.894531 9.707031 33.832031 10.269531 33.679688 C 10.503906 33.609375 10.691406 33.484375 10.707031 33.21875 C 10.714844 32.972656 10.535156 32.855469 10.339844 32.78125 C 8.964844 32.246094 7.609375 32.222656 6.257812 32.855469 C 6.0625 32.941406 5.84375 33.046875 5.851562 33.269531 C 5.859375 33.535156 6.105469 33.609375 6.339844 33.65625 C 7.058594 33.789062 7.796875 33.863281 8.546875 33.886719 Z M 8.546875 33.886719 "/>
<path style=" stroke:none;fill-rule:nonzero;fill:rgb(6.27451%,27.058824%,55.686275%);fill-opacity:1;" d="M 58.058594 31.835938 C 57.988281 31.828125 57.914062 31.828125 57.839844 31.828125 C 57.628906 31.820312 57.382812 31.8125 57.132812 31.769531 C 57.089844 31.761719 57.042969 31.753906 57 31.746094 C 56.570312 31.679688 55.6875 31.546875 55.648438 30.5 C 55.617188 29.691406 56.210938 29.023438 57.109375 28.828125 C 57.441406 28.761719 57.785156 28.726562 58.160156 28.726562 C 58.703125 28.726562 59.234375 28.800781 59.746094 28.867188 L 59.917969 28.890625 C 60.285156 28.933594 61.050781 29.039062 61.183594 29.847656 C 61.289062 30.515625 60.976562 31.085938 60.285156 31.464844 C 59.683594 31.792969 59.070312 31.808594 58.46875 31.820312 C 58.355469 31.820312 58.246094 31.828125 58.125 31.828125 L 58.09375 31.828125 Z M 58.058594 31.835938 "/>
<path style=" stroke:none;fill-rule:nonzero;fill:rgb(98.431373%,75.294118%,5.098039%);fill-opacity:1;" d="M 58.085938 31.324219 C 57.839844 31.308594 57.523438 31.316406 57.214844 31.265625 C 56.742188 31.183594 56.179688 31.175781 56.160156 30.484375 C 56.136719 29.914062 56.578125 29.476562 57.214844 29.34375 C 58.085938 29.15625 58.941406 29.289062 59.796875 29.402344 C 60.15625 29.445312 60.59375 29.484375 60.667969 29.945312 C 60.75 30.449219 60.449219 30.796875 60.03125 31.027344 C 59.4375 31.339844 58.785156 31.292969 58.085938 31.324219 Z M 58.3125 30.65625 C 58.3125 30.640625 58.3125 30.632812 58.3125 30.617188 C 58.621094 30.617188 58.933594 30.632812 59.242188 30.613281 C 59.421875 30.597656 59.640625 30.542969 59.664062 30.320312 C 59.675781 30.09375 59.476562 30.019531 59.292969 29.964844 C 58.640625 29.789062 57.980469 29.855469 57.320312 29.898438 C 57.132812 29.914062 56.921875 29.949219 56.921875 30.195312 C 56.921875 30.433594 57.097656 30.566406 57.320312 30.589844 C 57.652344 30.632812 57.980469 30.640625 58.3125 30.65625 Z M 58.3125 30.65625 "/>
<path style=" stroke:none;fill-rule:nonzero;fill:rgb(6.27451%,27.058824%,55.686275%);fill-opacity:1;" d="M 55.894531 27.195312 C 55.511719 27.195312 55.21875 26.957031 55.101562 26.566406 C 55.003906 26.222656 55.101562 25.90625 55.371094 25.6875 C 55.535156 25.5625 55.730469 25.503906 55.894531 25.453125 C 55.957031 25.429688 56.015625 25.414062 56.0625 25.398438 C 56.382812 25.257812 56.707031 25.183594 57.019531 25.109375 C 57.492188 25 57.90625 24.902344 58.214844 24.613281 C 58.347656 24.484375 58.542969 24.417969 58.777344 24.417969 C 58.828125 24.417969 58.882812 24.417969 58.925781 24.425781 C 59.0625 24.441406 59.191406 24.449219 59.339844 24.449219 C 59.851562 24.449219 60.359375 24.351562 60.894531 24.25 L 60.914062 24.242188 C 61.003906 24.226562 61.109375 24.203125 61.222656 24.203125 C 61.65625 24.203125 61.964844 24.457031 62.0625 24.878906 L 62.09375 25 L 62.0625 25.117188 C 61.949219 25.539062 61.613281 25.6875 61.425781 25.769531 C 61.402344 25.777344 61.386719 25.785156 61.367188 25.800781 C 61.140625 25.90625 60.914062 25.972656 60.699219 26.039062 C 60.253906 26.171875 59.976562 26.261719 59.804688 26.527344 C 59.632812 26.789062 59.308594 26.816406 59.183594 26.816406 C 59.054688 26.816406 58.933594 26.789062 58.835938 26.742188 C 58.65625 26.652344 58.484375 26.609375 58.28125 26.609375 C 57.980469 26.609375 57.660156 26.707031 57.320312 26.808594 C 57.097656 26.878906 56.855469 26.953125 56.609375 27.003906 C 56.578125 27.011719 56.511719 27.03125 56.457031 27.054688 C 56.300781 27.121094 56.105469 27.195312 55.894531 27.195312 Z M 55.894531 27.195312 "/>
<path style=" stroke:none;fill-rule:nonzero;fill:rgb(98.431373%,75.294118%,5.098039%);fill-opacity:1;" d="M 61.554688 25.007812 C 61.492188 25.222656 61.296875 25.273438 61.140625 25.355469 C 60.539062 25.636719 59.242188 25.609375 59.429688 26.371094 C 59.390625 26.425781 59.160156 26.527344 59.085938 26.492188 C 58.671875 25.824219 57.359375 26.351562 56.503906 26.511719 C 56.203125 26.574219 55.753906 26.921875 55.601562 26.425781 C 55.484375 26.03125 55.976562 26 56.269531 25.875 C 57.019531 25.546875 57.921875 25.59375 58.566406 24.992188 C 58.625 24.933594 58.769531 24.933594 58.867188 24.9375 C 59.59375 25.027344 60.308594 24.886719 61.011719 24.753906 C 61.230469 24.714844 61.476562 24.6875 61.554688 25.007812 Z M 61.554688 25.007812 "/>
<path style=" stroke:none;fill-rule:nonzero;fill:rgb(6.27451%,27.058824%,55.686275%);fill-opacity:1;" d="M 56.300781 29.050781 C 55.617188 29.050781 55.460938 28.597656 55.429688 28.40625 C 55.378906 28.125 55.476562 27.855469 55.691406 27.679688 C 55.828125 27.566406 55.976562 27.507812 56.089844 27.464844 C 56.625 27.253906 57.164062 27.1875 57.6875 27.121094 C 58.078125 27.078125 58.445312 27.03125 58.792969 26.929688 C 59.007812 26.863281 59.308594 26.789062 59.617188 26.789062 C 59.96875 26.789062 60.292969 26.878906 60.609375 27.0625 L 61.011719 27.308594 L 60.808594 27.730469 C 60.421875 28.523438 59.675781 28.578125 59.234375 28.605469 C 59.144531 28.613281 59.054688 28.621094 58.980469 28.628906 C 58.640625 28.671875 58.320312 28.742188 57.964844 28.816406 C 57.644531 28.882812 57.3125 28.949219 56.96875 29 C 56.804688 29.023438 56.609375 29.050781 56.40625 29.050781 L 56.382812 29.050781 C 56.347656 29.050781 56.324219 29.050781 56.300781 29.050781 Z M 56.300781 29.050781 "/>
<path style=" stroke:none;fill-rule:nonzero;fill:rgb(98.431373%,75.294118%,5.098039%);fill-opacity:1;" d="M 60.328125 27.507812 C 60.007812 28.160156 59.382812 28.050781 58.898438 28.117188 C 58.222656 28.214844 57.5625 28.382812 56.886719 28.480469 C 56.722656 28.503906 56.554688 28.523438 56.390625 28.53125 C 56.203125 28.53125 55.976562 28.554688 55.941406 28.316406 C 55.902344 28.085938 56.105469 28.003906 56.277344 27.9375 C 57.132812 27.605469 58.0625 27.679688 58.933594 27.417969 C 59.398438 27.285156 59.851562 27.21875 60.328125 27.507812 Z M 60.328125 27.507812 "/>
<path style=" stroke:none;fill-rule:nonzero;fill:rgb(6.27451%,27.058824%,55.686275%);fill-opacity:1;" d="M 61.808594 28.125 C 61.351562 28.125 60.996094 27.855469 60.898438 27.425781 C 60.832031 27.121094 60.9375 26.832031 61.179688 26.652344 C 61.320312 26.542969 61.484375 26.5 61.613281 26.460938 C 61.652344 26.453125 61.6875 26.4375 61.710938 26.429688 L 61.859375 26.371094 L 61.996094 26.402344 C 62.011719 26.402344 62.03125 26.402344 62.046875 26.402344 C 62.078125 26.402344 62.117188 26.402344 62.144531 26.402344 C 62.589844 26.402344 62.789062 26.660156 62.867188 26.816406 C 63.039062 27.167969 62.964844 27.492188 62.632812 27.796875 C 62.617188 27.8125 62.601562 27.828125 62.597656 27.835938 L 62.476562 28.027344 L 62.226562 28.066406 C 62.222656 28.066406 62.222656 28.066406 62.214844 28.066406 C 62.078125 28.101562 61.941406 28.125 61.808594 28.125 Z M 61.808594 28.125 "/>
<path style=" stroke:none;fill-rule:nonzero;fill:rgb(98.431373%,75.294118%,5.098039%);fill-opacity:1;" d="M 61.90625 26.90625 C 62.078125 26.945312 62.304688 26.839844 62.410156 27.046875 C 62.535156 27.300781 62.257812 27.390625 62.160156 27.550781 C 62.136719 27.550781 62.125 27.550781 62.101562 27.558594 C 61.800781 27.648438 61.476562 27.640625 61.402344 27.316406 C 61.34375 27.011719 61.6875 26.988281 61.90625 26.90625 Z M 61.90625 26.90625 "/>
<path style=" stroke:none;fill-rule:nonzero;fill:rgb(6.27451%,27.058824%,55.686275%);fill-opacity:1;" d="M 15.164062 18.84375 C 14.816406 18.84375 14.488281 18.652344 14.097656 18.390625 C 13.714844 18.144531 13.355469 17.871094 13.003906 17.609375 C 12.957031 17.582031 12.914062 17.542969 12.875 17.515625 L 12.824219 17.566406 L 12.386719 17.136719 L 11.824219 16.578125 L 11.839844 16.570312 C 11.832031 16.5625 11.832031 16.5625 11.824219 16.558594 C 11.71875 16.460938 11.523438 16.273438 11.523438 15.976562 C 11.523438 15.800781 11.597656 15.621094 11.75 15.488281 C 11.945312 15.308594 12.175781 15.207031 12.417969 15.207031 C 12.425781 15.207031 12.433594 15.207031 12.441406 15.207031 C 12.265625 15.003906 12.222656 14.789062 12.296875 14.550781 C 12.394531 14.246094 12.664062 14.054688 13.003906 14.054688 C 13.0625 14.054688 13.113281 14.0625 13.160156 14.0625 C 13.191406 14.0625 13.234375 14.070312 13.28125 14.070312 C 13.46875 14.070312 13.753906 14.078125 14.015625 14.277344 C 14.277344 14.476562 14.546875 14.679688 14.808594 14.871094 C 15.523438 15.398438 16.257812 15.941406 16.910156 16.59375 L 17 16.691406 L 17.039062 16.816406 C 17.113281 17.078125 17.089844 17.300781 16.980469 17.484375 C 16.804688 17.753906 16.527344 17.804688 16.378906 17.832031 C 16.371094 17.832031 16.371094 17.832031 16.363281 17.832031 L 16.339844 17.847656 C 16.3125 17.871094 16.28125 17.886719 16.257812 17.902344 C 15.996094 18.375 15.726562 18.84375 15.164062 18.84375 Z M 15.164062 18.84375 "/>
<path style=" stroke:none;fill-rule:nonzero;fill:rgb(98.431373%,75.294118%,5.098039%);fill-opacity:1;" d="M 13.664062 15.578125 C 13.414062 15.367188 13.160156 15.160156 12.914062 14.945312 C 12.835938 14.878906 12.738281 14.8125 12.777344 14.691406 C 12.824219 14.539062 12.972656 14.550781 13.085938 14.566406 C 13.289062 14.589844 13.503906 14.539062 13.675781 14.679688 C 14.636719 15.421875 15.660156 16.082031 16.519531 16.941406 C 16.664062 17.425781 16.136719 17.226562 16.011719 17.425781 C 15.945312 17.46875 15.851562 17.507812 15.816406 17.574219 C 15.359375 18.488281 15.238281 18.53125 14.375 17.96875 C 13.84375 17.617188 13.339844 17.226562 12.828125 16.855469 C 12.800781 16.824219 12.769531 16.792969 12.746094 16.773438 L 12.753906 16.773438 C 12.582031 16.601562 12.410156 16.429688 12.246094 16.253906 C 12.148438 16.140625 11.929688 16.015625 12.09375 15.859375 C 12.230469 15.734375 12.441406 15.644531 12.648438 15.8125 C 12.867188 15.992188 13.101562 16.15625 13.332031 16.328125 C 13.398438 16.386719 13.460938 16.445312 13.527344 16.503906 C 13.566406 16.527344 13.601562 16.558594 13.640625 16.578125 C 13.691406 16.625 13.738281 16.660156 13.789062 16.707031 C 13.859375 16.757812 13.917969 16.800781 13.984375 16.855469 C 14.15625 16.996094 14.316406 17.152344 14.496094 17.277344 C 14.652344 17.382812 14.816406 17.558594 15.035156 17.367188 C 15.261719 17.164062 15.074219 17.007812 14.976562 16.839844 C 14.855469 16.632812 14.71875 16.429688 14.511719 16.296875 C 14.511719 16.261719 14.488281 16.238281 14.449219 16.238281 C 14.433594 16.199219 14.414062 16.171875 14.367188 16.164062 C 14.367188 16.132812 14.351562 16.117188 14.316406 16.113281 C 14.144531 15.867188 13.910156 15.710938 13.664062 15.578125 Z M 13.664062 15.578125 "/>
<path style=" stroke:none;fill-rule:nonzero;fill:rgb(6.27451%,27.058824%,55.686275%);fill-opacity:1;" d="M 14.429688 20.574219 C 14.246094 20.574219 14.054688 20.527344 13.84375 20.433594 C 13.511719 20.292969 13.203125 20.121094 12.90625 19.957031 L 12.761719 19.882812 C 12.664062 19.832031 12.589844 19.773438 12.53125 19.71875 C 12.515625 19.703125 12.484375 19.683594 12.46875 19.675781 C 11.507812 19.511719 10.835938 18.941406 10.234375 18.429688 C 9.984375 18.21875 9.746094 18.019531 9.5 17.847656 L 9.453125 17.820312 L 9.414062 17.78125 C 9.402344 17.765625 9.386719 17.753906 9.371094 17.738281 C 9.324219 17.691406 9.273438 17.640625 9.222656 17.574219 C 9.207031 17.558594 9.191406 17.542969 9.175781 17.523438 C 8.851562 17.164062 8.800781 16.816406 9.027344 16.496094 C 9.175781 16.28125 9.402344 16.15625 9.65625 16.15625 C 9.851562 16.15625 10.007812 16.222656 10.128906 16.273438 L 10.160156 16.289062 C 10.257812 16.328125 10.355469 16.371094 10.457031 16.410156 C 10.503906 16.421875 10.554688 16.445312 10.601562 16.460938 L 10.796875 16.535156 L 10.878906 16.710938 C 10.878906 16.710938 10.886719 16.71875 10.894531 16.71875 C 11.847656 16.742188 12.425781 17.335938 12.882812 17.8125 C 12.972656 17.90625 13.0625 17.996094 13.152344 18.085938 C 13.339844 18.265625 13.601562 18.382812 13.871094 18.503906 C 14.144531 18.621094 14.421875 18.746094 14.683594 18.949219 C 14.699219 18.953125 14.734375 18.976562 14.765625 19 C 14.878906 19.066406 15.035156 19.15625 15.15625 19.3125 C 15.34375 19.554688 15.351562 19.859375 15.1875 20.148438 C 15.027344 20.417969 14.757812 20.574219 14.429688 20.574219 Z M 14.429688 20.574219 "/>
<path style=" stroke:none;fill-rule:nonzero;fill:rgb(6.27451%,27.058824%,55.686275%);fill-opacity:1;" d="M 13.339844 22.757812 C 12.078125 22.578125 11.042969 21.960938 10.046875 21.359375 C 9.957031 21.308594 9.867188 21.257812 9.777344 21.195312 C 9.304688 20.914062 9.214844 20.402344 9.152344 20.023438 C 9.132812 19.914062 9.117188 19.808594 9.09375 19.726562 C 9.039062 19.542969 9.078125 19.332031 9.191406 19.164062 C 9.339844 18.949219 9.605469 18.800781 9.882812 18.777344 C 9.917969 18.777344 9.957031 18.769531 9.992188 18.769531 C 10.269531 18.769531 10.503906 18.859375 10.691406 18.933594 C 10.75 18.953125 10.8125 18.976562 10.863281 18.992188 C 11.292969 19.132812 11.433594 19.402344 11.480469 19.601562 C 11.515625 19.792969 11.480469 19.964844 11.433594 20.105469 C 11.96875 20.402344 12.523438 20.691406 13.054688 20.972656 C 13.25 21.078125 13.453125 21.183594 13.648438 21.292969 L 13.714844 21.332031 L 13.769531 21.382812 C 14.082031 21.703125 14.113281 22.125 13.835938 22.519531 L 13.65625 22.785156 Z M 13.339844 22.757812 "/>
<path style=" stroke:none;fill-rule:nonzero;fill:rgb(98.431373%,75.294118%,5.098039%);fill-opacity:1;" d="M 13.414062 22.242188 C 12.15625 22.066406 11.105469 21.390625 10.054688 20.757812 C 9.6875 20.535156 9.714844 19.996094 9.597656 19.59375 C 9.558594 19.46875 9.746094 19.3125 9.933594 19.296875 C 10.21875 19.273438 10.453125 19.414062 10.707031 19.496094 C 11.097656 19.625 10.976562 19.851562 10.902344 20.113281 C 10.839844 20.328125 11 20.46875 11.164062 20.558594 C 11.90625 20.96875 12.65625 21.359375 13.40625 21.761719 C 13.558594 21.917969 13.527344 22.082031 13.414062 22.242188 Z M 13.414062 22.242188 "/>
<path style=" stroke:none;fill-rule:nonzero;fill:rgb(6.27451%,27.058824%,55.686275%);fill-opacity:1;" d="M 22.320312 12.273438 C 22.089844 12.273438 21.765625 12.183594 21.539062 11.738281 C 21.414062 11.492188 21.277344 11.242188 21.144531 10.996094 C 21.023438 10.773438 20.894531 10.542969 20.773438 10.320312 C 20.414062 9.636719 20.0625 8.9375 19.710938 8.261719 C 19.566406 7.980469 19.425781 7.707031 19.28125 7.425781 L 19.265625 7.394531 L 19.253906 7.359375 C 19.222656 7.277344 19.199219 7.195312 19.175781 7.121094 C 19.140625 6.988281 19.101562 6.859375 19.050781 6.769531 C 18.507812 5.828125 18.90625 5.195312 19.335938 4.832031 C 19.777344 4.460938 20.273438 4.261719 20.773438 4.261719 C 21.082031 4.261719 21.382812 4.335938 21.660156 4.484375 C 21.96875 4.648438 22.191406 4.871094 22.386719 5.0625 C 22.523438 5.195312 22.652344 5.324219 22.785156 5.414062 L 23.019531 5.796875 L 23.214844 6.339844 C 23.328125 6.816406 23.304688 7.285156 23.265625 7.738281 C 23.222656 8.25 23.386719 8.566406 23.828125 8.828125 C 24.167969 9.019531 24.4375 9.214844 24.667969 9.421875 L 24.699219 9.445312 C 24.804688 9.53125 24.945312 9.667969 25.042969 9.835938 C 25.203125 10.121094 25.179688 10.4375 24.992188 10.707031 C 24.835938 10.9375 24.59375 11.054688 24.324219 11.054688 C 24.089844 11.054688 23.890625 10.964844 23.707031 10.871094 L 23.589844 10.808594 C 23.363281 10.691406 23.132812 10.574219 22.898438 10.445312 C 22.972656 10.625 23.054688 10.789062 23.136719 10.953125 C 23.144531 10.964844 23.160156 10.988281 23.167969 11.003906 C 23.234375 11.128906 23.371094 11.367188 23.28125 11.65625 C 23.222656 11.855469 23.070312 12.011719 22.847656 12.132812 C 22.644531 12.226562 22.476562 12.273438 22.320312 12.273438 Z M 22.320312 12.273438 "/>
<path style=" stroke:none;fill-rule:nonzero;fill:rgb(98.431373%,75.294118%,5.098039%);fill-opacity:1;" d="M 22.5 5.84375 C 22.507812 5.886719 22.515625 5.933594 22.523438 5.976562 C 22.546875 6.019531 22.574219 6.074219 22.597656 6.117188 C 22.816406 6.621094 22.792969 7.164062 22.75 7.691406 C 22.6875 8.398438 22.949219 8.910156 23.558594 9.265625 C 23.820312 9.421875 24.085938 9.59375 24.316406 9.800781 C 24.488281 9.957031 24.746094 10.148438 24.558594 10.417969 C 24.398438 10.648438 24.144531 10.527344 23.933594 10.425781 C 23.605469 10.253906 23.28125 10.089844 22.957031 9.90625 C 22.703125 9.757812 22.425781 9.546875 22.179688 9.769531 C 21.914062 10.007812 22.230469 10.246094 22.328125 10.476562 C 22.433594 10.714844 22.539062 10.953125 22.660156 11.1875 C 22.75 11.375 22.898438 11.523438 22.589844 11.679688 C 22.304688 11.820312 22.140625 11.796875 22 11.515625 C 21.75 11.03125 21.480469 10.566406 21.226562 10.089844 C 20.722656 9.132812 20.226562 8.167969 19.730469 7.203125 C 19.65625 6.980469 19.613281 6.734375 19.492188 6.527344 C 19.214844 6.042969 19.207031 5.628906 19.664062 5.234375 C 20.226562 4.757812 20.867188 4.65625 21.414062 4.945312 C 21.847656 5.167969 22.109375 5.582031 22.5 5.84375 Z M 21.992188 7.0625 C 21.90625 6.628906 21.804688 6.222656 21.429688 5.941406 C 21.164062 5.746094 20.886719 5.722656 20.617188 5.902344 C 20.324219 6.09375 20.339844 6.386719 20.460938 6.660156 C 20.574219 6.917969 20.691406 7.1875 20.851562 7.417969 C 21.039062 7.707031 21.054688 8.285156 21.464844 8.21875 C 21.863281 8.152344 21.855469 7.609375 21.9375 7.230469 C 21.945312 7.171875 21.96875 7.113281 21.992188 7.0625 Z M 21.992188 7.0625 "/>
<path style=" stroke:none;fill-rule:nonzero;fill:rgb(6.27451%,27.058824%,55.686275%);fill-opacity:1;" d="M 50.390625 16.484375 C 49.921875 16.484375 49.449219 16.222656 49.082031 15.761719 C 48.707031 15.292969 48.558594 14.730469 48.671875 14.269531 C 48.777344 13.855469 49 13.558594 49.203125 13.296875 C 49.292969 13.179688 49.375 13.066406 49.445312 12.957031 L 49.464844 12.917969 L 49.488281 12.890625 C 49.535156 12.828125 49.554688 12.800781 49.609375 12.761719 L 49.625 12.746094 L 49.796875 12.644531 C 50.042969 12.496094 50.253906 12.265625 50.472656 12.027344 C 50.613281 11.871094 50.757812 11.714844 50.921875 11.558594 C 51.191406 11.316406 51.445312 11.054688 51.71875 10.78125 C 51.835938 10.660156 51.957031 10.535156 52.078125 10.417969 L 52.097656 10.394531 L 52.128906 10.371094 C 52.160156 10.351562 52.183594 10.335938 52.210938 10.3125 C 52.265625 10.277344 52.316406 10.230469 52.363281 10.195312 C 52.871094 9.777344 53.300781 9.496094 53.757812 9.496094 C 54.425781 9.496094 54.851562 10.066406 55.226562 10.652344 C 55.25 10.683594 55.273438 10.722656 55.304688 10.757812 C 55.316406 10.78125 55.339844 10.804688 55.355469 10.824219 L 55.460938 10.972656 L 55.421875 11.597656 L 55.28125 11.738281 C 55.265625 11.753906 55.242188 11.769531 55.226562 11.789062 C 55.039062 11.976562 54.792969 12.222656 54.371094 12.273438 L 54.246094 12.289062 L 54.125 12.242188 C 54.085938 12.226562 54.035156 12.214844 53.984375 12.199219 C 53.839844 12.152344 53.667969 12.101562 53.511719 12 C 53.414062 11.929688 53.359375 11.929688 53.34375 11.929688 C 53.316406 11.929688 53.246094 11.960938 53.15625 12.050781 C 52.902344 12.296875 52.933594 12.347656 52.992188 12.464844 C 53.128906 12.71875 53.488281 13.402344 52.828125 14.039062 C 52.601562 14.261719 52.324219 14.382812 52.03125 14.382812 C 51.710938 14.382812 51.4375 14.242188 51.242188 14.121094 C 51.214844 14.105469 51.199219 14.09375 51.183594 14.09375 C 51.160156 14.105469 51.132812 14.128906 51.0625 14.1875 C 50.914062 14.328125 50.9375 14.375 50.980469 14.441406 C 51.003906 14.476562 51.027344 14.515625 51.054688 14.558594 C 51.175781 14.753906 51.339844 15.011719 51.335938 15.363281 L 51.335938 15.390625 C 51.328125 15.636719 51.320312 16.378906 50.507812 16.46875 C 50.472656 16.476562 50.433594 16.484375 50.390625 16.484375 Z M 50.390625 16.484375 "/>
<path style=" stroke:none;fill-rule:nonzero;fill:rgb(98.431373%,75.294118%,5.098039%);fill-opacity:1;" d="M 54.929688 11.144531 C 54.921875 11.226562 54.921875 11.308594 54.914062 11.390625 C 54.742188 11.558594 54.574219 11.746094 54.3125 11.777344 C 54.140625 11.707031 53.945312 11.671875 53.796875 11.574219 C 53.421875 11.335938 53.113281 11.390625 52.796875 11.695312 C 52.488281 11.992188 52.308594 12.289062 52.535156 12.71875 C 52.707031 13.046875 52.8125 13.355469 52.46875 13.691406 C 52.121094 14.023438 51.777344 13.855469 51.523438 13.699219 C 51.160156 13.476562 50.945312 13.609375 50.710938 13.824219 C 50.449219 14.070312 50.335938 14.359375 50.53125 14.699219 C 50.652344 14.914062 50.824219 15.109375 50.816406 15.367188 C 50.808594 15.628906 50.824219 15.925781 50.457031 15.96875 C 49.773438 16.042969 49.007812 15.066406 49.171875 14.402344 C 49.292969 13.921875 49.660156 13.625 49.886719 13.222656 L 49.917969 13.1875 C 49.96875 13.15625 50.011719 13.125 50.066406 13.089844 C 50.546875 12.800781 50.855469 12.324219 51.265625 11.945312 C 51.671875 11.574219 52.046875 11.175781 52.4375 10.789062 C 52.519531 10.730469 52.601562 10.667969 52.675781 10.601562 C 53.703125 9.757812 54.042969 9.816406 54.777344 10.953125 C 54.824219 11.019531 54.875 11.078125 54.929688 11.144531 Z M 54.929688 11.144531 "/>
<path style=" stroke:none;fill-rule:nonzero;fill:rgb(6.27451%,27.058824%,55.686275%);fill-opacity:1;" d="M 53.496094 20.640625 C 52.933594 20.640625 52.632812 20.320312 52.472656 20.054688 C 52.121094 19.453125 52.195312 18.761719 52.664062 18.167969 C 52.691406 18.128906 52.722656 18.085938 52.753906 18.050781 C 52.765625 18.027344 52.78125 18.003906 52.796875 17.980469 L 52.835938 17.929688 L 53.023438 17.78125 L 53.089844 17.746094 C 53.230469 17.671875 53.351562 17.609375 53.40625 17.53125 L 53.480469 17.417969 L 53.609375 17.359375 C 53.757812 17.292969 53.90625 17.210938 54.058594 17.136719 C 54.402344 16.964844 54.761719 16.785156 55.152344 16.644531 C 55.429688 16.550781 55.6875 16.496094 55.925781 16.496094 C 56.308594 16.496094 56.636719 16.632812 56.878906 16.882812 C 57.132812 17.152344 57.269531 17.523438 57.277344 17.996094 L 57.613281 18.234375 L 57.105469 18.65625 C 56.992188 18.753906 56.9375 18.8125 56.929688 18.867188 L 56.894531 19.035156 L 56.660156 19.238281 L 56.527344 19.265625 C 56.488281 19.273438 56.4375 19.289062 56.355469 19.4375 L 56.226562 19.683594 L 56 19.710938 C 55.8125 19.785156 55.617188 19.898438 55.421875 20.007812 C 55.070312 20.210938 54.671875 20.433594 54.199219 20.523438 C 54.15625 20.527344 54.109375 20.535156 54.066406 20.550781 C 53.894531 20.601562 53.703125 20.640625 53.496094 20.640625 Z M 53.496094 20.640625 "/>
<path style=" stroke:none;fill-rule:nonzero;fill:rgb(98.431373%,75.294118%,5.098039%);fill-opacity:1;" d="M 54.101562 20.03125 C 53.675781 20.113281 53.210938 20.277344 52.933594 19.800781 C 52.675781 19.363281 52.753906 18.894531 53.074219 18.496094 C 53.128906 18.429688 53.171875 18.359375 53.21875 18.300781 C 53.246094 18.28125 53.277344 18.25 53.308594 18.226562 C 53.503906 18.125 53.824219 17.839844 53.824219 17.839844 C 54.320312 17.609375 54.808594 17.335938 55.324219 17.152344 C 56.277344 16.808594 56.804688 17.226562 56.742188 18.234375 L 56.734375 18.265625 C 56.734375 18.265625 56 19.007812 55.886719 19.222656 C 55.894531 19.222656 54.761719 19.90625 54.101562 20.03125 Z M 55.957031 18.019531 C 55.835938 17.796875 55.625 17.773438 55.394531 17.847656 C 54.761719 18.054688 54.171875 18.355469 53.644531 18.761719 C 53.488281 18.878906 53.351562 19.027344 53.457031 19.230469 C 53.578125 19.46875 53.796875 19.414062 53.996094 19.339844 C 54.605469 19.125 55.167969 18.820312 55.6875 18.441406 C 55.820312 18.355469 55.949219 18.242188 55.957031 18.019531 Z M 55.957031 18.019531 "/>
<path style=" stroke:none;fill-rule:nonzero;fill:rgb(6.27451%,27.058824%,55.686275%);fill-opacity:1;" d="M 54.019531 22.496094 C 53.742188 22.496094 53.503906 22.339844 53.375 22.074219 C 53.195312 21.710938 53.292969 21.324219 53.613281 21.035156 C 54.035156 20.664062 54.507812 20.425781 54.964844 20.1875 C 55.027344 20.15625 55.085938 20.128906 55.144531 20.097656 C 56.464844 19.414062 57.890625 18.703125 59.363281 18.09375 L 59.445312 18.054688 L 59.503906 18.054688 C 59.527344 18.050781 59.578125 18.019531 59.609375 18.003906 C 59.746094 17.9375 59.925781 17.839844 60.140625 17.839844 C 60.285156 17.839844 60.644531 17.886719 60.832031 18.324219 C 60.984375 18.65625 60.929688 18.992188 60.691406 19.238281 C 60.539062 19.394531 60.34375 19.476562 60.195312 19.542969 C 60.140625 19.5625 60.082031 19.59375 60.050781 19.609375 C 59.894531 19.699219 59.738281 19.777344 59.578125 19.859375 C 59.511719 19.890625 59.453125 19.925781 59.382812 19.957031 L 58.425781 20.433594 C 57.246094 21.019531 56.0625 21.597656 54.882812 22.183594 C 54.742188 22.257812 54.589844 22.316406 54.460938 22.378906 L 54.433594 22.390625 C 54.34375 22.429688 54.199219 22.496094 54.019531 22.496094 Z M 54.019531 22.496094 "/>
<path style=" stroke:none;fill-rule:nonzero;fill:rgb(98.431373%,75.294118%,5.098039%);fill-opacity:1;" d="M 59.566406 18.5625 C 59.84375 18.546875 60.179688 18.117188 60.367188 18.523438 C 60.546875 18.925781 60.058594 19.007812 59.796875 19.164062 C 59.585938 19.28125 59.371094 19.394531 59.152344 19.503906 C 57.660156 20.246094 56.160156 20.988281 54.664062 21.722656 C 54.539062 21.792969 54.402344 21.84375 54.273438 21.902344 C 54.125 21.96875 53.960938 22.066406 53.855469 21.851562 C 53.773438 21.679688 53.839844 21.539062 53.976562 21.414062 C 54.394531 21.042969 54.90625 20.804688 55.402344 20.550781 C 56.757812 19.839844 58.140625 19.15625 59.566406 18.5625 Z M 59.566406 18.5625 "/>
<path style=" stroke:none;fill-rule:nonzero;fill:rgb(6.27451%,27.058824%,55.686275%);fill-opacity:1;" d="M 54.5 25.082031 L 54.574219 24.730469 C 54.65625 24.316406 54.523438 23.90625 54.367188 23.433594 L 54.351562 23.386719 C 54.191406 22.917969 54.484375 22.429688 55.125 22.082031 C 56.128906 21.523438 57.203125 21.21875 58.027344 21.011719 C 58.152344 20.980469 58.265625 20.96875 58.371094 20.96875 C 58.777344 20.96875 59.085938 21.203125 59.175781 21.589844 C 59.242188 21.871094 59.167969 22.148438 58.964844 22.339844 C 58.996094 22.339844 59.03125 22.332031 59.070312 22.332031 C 59.460938 22.332031 59.761719 22.546875 59.863281 22.90625 C 59.953125 23.214844 59.851562 23.527344 59.570312 23.738281 C 59.421875 23.847656 59.25 23.921875 59.128906 23.964844 C 57.980469 24.417969 56.8125 24.871094 55.777344 25.265625 C 55.753906 25.273438 55.738281 25.28125 55.714844 25.289062 L 55.558594 25.726562 Z M 54.5 25.082031 "/>
<path style=" stroke:none;fill-rule:nonzero;fill:rgb(98.431373%,75.294118%,5.098039%);fill-opacity:1;" d="M 54.839844 23.222656 C 54.753906 22.964844 55.085938 22.683594 55.371094 22.527344 C 56.242188 22.042969 57.1875 21.746094 58.148438 21.507812 C 58.335938 21.464844 58.597656 21.425781 58.664062 21.703125 C 58.722656 21.960938 58.484375 22.050781 58.296875 22.117188 C 57.652344 22.347656 57 22.535156 56.359375 22.777344 C 56.128906 22.867188 55.761719 22.972656 55.835938 23.277344 C 55.902344 23.527344 56.257812 23.460938 56.496094 23.460938 C 56.976562 23.460938 57.433594 23.34375 57.882812 23.1875 C 58.152344 23.089844 58.417969 22.957031 58.695312 22.898438 C 58.917969 22.851562 59.257812 22.75 59.347656 23.046875 C 59.421875 23.289062 59.113281 23.410156 58.910156 23.492188 C 57.800781 23.929688 56.691406 24.359375 55.574219 24.785156 C 55.46875 24.828125 54.539062 24.285156 54.839844 23.222656 Z M 54.839844 23.222656 "/>
<path style=" stroke:none;fill-rule:nonzero;fill:rgb(6.27451%,27.058824%,55.686275%);fill-opacity:1;" d="M 51.183594 18.332031 L 51.042969 18.078125 C 50.589844 17.285156 50.703125 16.535156 51.386719 15.835938 C 51.820312 15.390625 52.265625 14.953125 52.699219 14.523438 C 52.886719 14.335938 53.074219 14.152344 53.261719 13.957031 L 53.308594 13.914062 L 53.367188 13.875 C 53.398438 13.863281 53.433594 13.832031 53.480469 13.800781 C 53.667969 13.675781 53.898438 13.527344 54.191406 13.527344 C 54.433594 13.527344 54.652344 13.632812 54.800781 13.832031 C 54.988281 14.070312 55.003906 14.292969 54.988281 14.441406 C 54.964844 14.589844 54.90625 14.714844 54.832031 14.820312 C 54.882812 14.796875 54.949219 14.773438 55.027344 14.761719 C 55.039062 14.753906 55.0625 14.746094 55.078125 14.730469 C 55.183594 14.679688 55.339844 14.589844 55.550781 14.589844 C 55.691406 14.589844 55.894531 14.625 56.082031 14.820312 C 56.292969 15.035156 56.472656 15.398438 56.097656 15.894531 L 56.105469 16.015625 L 55.894531 16.179688 L 55.5 16.476562 L 55.289062 16.5625 C 55.25 16.570312 55.234375 16.578125 55.234375 16.578125 C 55.242188 16.578125 55.25 16.5625 55.257812 16.558594 L 54.898438 16.800781 C 54.769531 16.824219 54.742188 16.859375 54.726562 16.875 L 54.367188 17.070312 C 54.335938 17.070312 54.28125 17.085938 54.175781 17.1875 L 54.101562 17.261719 L 54.003906 17.300781 C 53.390625 17.523438 52.828125 17.832031 52.21875 18.160156 L 51.910156 18.324219 L 51.648438 18.339844 Z M 51.183594 18.332031 "/>
<path style=" stroke:none;fill-rule:nonzero;fill:rgb(98.431373%,75.294118%,5.098039%);fill-opacity:1;" d="M 54.914062 15.339844 C 54.988281 15.308594 55.0625 15.273438 55.144531 15.257812 C 55.332031 15.21875 55.519531 14.992188 55.707031 15.175781 C 55.941406 15.414062 55.632812 15.570312 55.574219 15.761719 C 55.4375 15.859375 54.433594 16.394531 54.304688 16.558594 C 54.304688 16.558594 53.953125 16.675781 53.808594 16.808594 C 53.082031 17.070312 52.421875 17.449219 51.746094 17.820312 C 51.710938 17.820312 51.664062 17.828125 51.625 17.828125 C 51.582031 17.828125 51.535156 17.828125 51.492188 17.820312 C 51.160156 17.234375 51.238281 16.71875 51.753906 16.1875 C 52.371094 15.554688 53 14.9375 53.621094 14.316406 C 53.863281 14.171875 54.175781 13.875 54.386719 14.144531 C 54.628906 14.449219 54.269531 14.632812 54.027344 14.835938 C 53.628906 15.160156 53.292969 15.554688 52.925781 15.917969 C 52.78125 16.058594 52.765625 16.238281 52.863281 16.363281 C 52.953125 16.484375 53.128906 16.4375 53.253906 16.355469 C 53.796875 16.023438 54.335938 15.679688 54.875 15.339844 Z M 54.914062 15.339844 "/>
<path style=" stroke:none;fill-rule:nonzero;fill:rgb(6.27451%,27.058824%,55.686275%);fill-opacity:1;" d="M 39.683594 10.089844 C 39.613281 10.089844 39.546875 10.082031 39.480469 10.074219 L 39.179688 10.023438 L 39.074219 9.742188 C 38.789062 8.953125 39 8.25 39.179688 7.625 C 39.226562 7.476562 39.261719 7.335938 39.300781 7.195312 C 39.316406 7.140625 39.328125 7.097656 39.34375 7.0625 C 39.148438 6.199219 39.503906 5.515625 39.816406 4.90625 C 39.996094 4.566406 40.164062 4.238281 40.214844 3.914062 L 40.222656 3.847656 L 40.253906 3.785156 C 40.265625 3.75 40.28125 3.710938 40.296875 3.683594 C 40.335938 3.585938 40.378906 3.480469 40.441406 3.378906 C 40.574219 3.125 40.824219 2.976562 41.09375 2.976562 C 41.160156 2.976562 41.21875 2.984375 41.289062 3 C 41.640625 3.089844 41.875 3.378906 41.894531 3.734375 C 41.902344 3.898438 41.894531 4.054688 41.886719 4.210938 C 41.886719 4.269531 41.878906 4.328125 41.878906 4.378906 L 41.878906 4.46875 L 41.851562 4.550781 C 41.835938 4.589844 41.820312 4.625 41.804688 4.648438 C 41.859375 5.628906 41.496094 6.460938 41.152344 7.261719 C 40.898438 7.863281 40.648438 8.433594 40.589844 9.027344 C 40.589844 9.042969 40.589844 9.066406 40.582031 9.082031 C 40.574219 9.214844 40.550781 9.421875 40.460938 9.613281 C 40.320312 9.910156 40.035156 10.089844 39.683594 10.089844 Z M 39.683594 10.089844 "/>
<path style=" stroke:none;fill-rule:nonzero;fill:rgb(6.27451%,27.058824%,55.686275%);fill-opacity:1;" d="M 36.410156 9.308594 C 36.382812 9.308594 36.359375 9.308594 36.328125 9.304688 C 36.101562 9.28125 35.8125 9.148438 35.707031 8.679688 C 35.570312 8.070312 35.675781 7.484375 35.757812 6.964844 C 35.765625 6.914062 35.78125 6.851562 35.789062 6.800781 C 35.824219 6.585938 35.871094 6.371094 35.921875 6.164062 C 36 5.84375 36.066406 5.539062 36.082031 5.242188 C 36.109375 4.617188 36.480469 4.222656 37.070312 4.195312 C 37.085938 4.1875 37.117188 4.171875 37.140625 4.164062 C 37.160156 4.15625 37.175781 4.148438 37.199219 4.136719 C 37.558594 3.980469 37.84375 3.90625 38.105469 3.90625 C 38.472656 3.90625 38.714844 4.0625 38.847656 4.195312 C 39.203125 4.542969 39.238281 5.101562 39.238281 5.5 C 39.269531 6.066406 39.140625 6.609375 39.023438 7.128906 C 38.933594 7.527344 38.84375 7.898438 38.820312 8.277344 C 38.796875 8.714844 38.496094 9.183594 37.980469 9.183594 C 37.941406 9.183594 37.902344 9.183594 37.867188 9.175781 C 37.527344 9.125 37.28125 8.925781 37.199219 8.605469 C 37.191406 8.582031 37.183594 8.554688 37.183594 8.53125 C 37.183594 8.539062 37.175781 8.546875 37.175781 8.554688 C 37.152344 8.628906 37.125 8.695312 37.101562 8.769531 C 36.996094 9.101562 36.734375 9.308594 36.410156 9.308594 Z M 36.410156 9.308594 "/>
<path style=" stroke:none;fill-rule:nonzero;fill:rgb(98.431373%,75.294118%,5.098039%);fill-opacity:1;" d="M 38.722656 5.515625 C 38.773438 6.414062 38.355469 7.304688 38.308594 8.257812 C 38.300781 8.410156 38.195312 8.710938 37.949219 8.671875 C 37.65625 8.628906 37.679688 8.382812 37.714844 8.144531 C 37.8125 7.4375 37.902344 6.734375 37.972656 6.027344 C 37.996094 5.796875 38.070312 5.457031 37.769531 5.398438 C 37.460938 5.339844 37.304688 5.648438 37.25 5.902344 C 37.101562 6.554688 36.996094 7.214844 36.855469 7.871094 C 36.800781 8.121094 36.695312 8.375 36.621094 8.621094 C 36.582031 8.722656 36.523438 8.804688 36.402344 8.789062 C 36.277344 8.777344 36.253906 8.671875 36.230469 8.566406 C 36.101562 7.996094 36.222656 7.433594 36.320312 6.882812 C 36.410156 6.339844 36.589844 5.820312 36.621094 5.269531 C 36.636719 4.960938 36.765625 4.722656 37.140625 4.707031 C 37.238281 4.707031 37.332031 4.648438 37.429688 4.609375 C 38.339844 4.195312 38.722656 4.441406 38.722656 5.515625 Z M 38.722656 5.515625 "/>
<path style=" stroke:none;fill-rule:nonzero;fill:rgb(6.27451%,27.058824%,55.686275%);fill-opacity:1;" d="M 28.324219 9.90625 C 27.871094 9.90625 27.484375 9.5625 27.378906 9.074219 C 27.136719 7.996094 26.925781 6.933594 26.769531 6.132812 C 26.746094 6.019531 26.6875 5.695312 27.160156 5.011719 C 27.332031 4.757812 27.796875 4.171875 28.261719 4.089844 C 28.332031 4.074219 28.398438 4.074219 28.464844 4.074219 C 29.035156 4.074219 29.335938 4.492188 29.507812 4.738281 L 29.546875 4.789062 C 29.921875 5.300781 30.035156 5.894531 30.109375 6.453125 C 30.152344 6.800781 30.242188 7.148438 30.347656 7.515625 C 30.394531 7.667969 30.4375 7.832031 30.476562 7.996094 C 30.679688 8.820312 30.070312 9.082031 29.882812 9.140625 C 29.785156 9.167969 29.6875 9.183594 29.597656 9.183594 C 29.394531 9.183594 29.230469 9.125 29.101562 9 C 29.132812 9.15625 29.140625 9.355469 29.019531 9.546875 C 28.953125 9.667969 28.8125 9.816406 28.546875 9.875 C 28.464844 9.898438 28.390625 9.90625 28.324219 9.90625 Z M 28.324219 9.90625 "/>
<path style=" stroke:none;fill-rule:nonzero;fill:rgb(98.431373%,75.294118%,5.098039%);fill-opacity:1;" d="M 28.03125 6.3125 C 28.195312 7.164062 28.34375 8.011719 28.527344 8.863281 C 28.570312 9.074219 28.699219 9.308594 28.421875 9.378906 C 28.144531 9.445312 27.941406 9.214844 27.878906 8.960938 C 27.664062 7.988281 27.46875 7.015625 27.28125 6.035156 C 27.210938 5.6875 28 4.65625 28.34375 4.601562 C 28.757812 4.535156 28.929688 4.824219 29.125 5.09375 C 29.433594 5.515625 29.53125 6.027344 29.589844 6.519531 C 29.660156 7.066406 29.839844 7.589844 29.964844 8.121094 C 30.027344 8.367188 29.996094 8.566406 29.71875 8.65625 C 29.410156 8.753906 29.359375 8.515625 29.3125 8.332031 C 29.15625 7.675781 29.011719 7.023438 28.871094 6.371094 C 28.855469 6.3125 28.878906 6.238281 28.847656 6.191406 C 28.699219 5.976562 28.789062 5.5 28.40625 5.574219 C 28.121094 5.621094 28.074219 6.007812 28.03125 6.3125 Z M 28.03125 6.3125 "/>
<path style=" stroke:none;fill-rule:nonzero;fill:rgb(6.27451%,27.058824%,55.686275%);fill-opacity:1;" d="M 26.070312 10.574219 C 25.53125 10.574219 25.023438 10.246094 24.667969 9.667969 C 24.242188 8.96875 23.988281 8.152344 23.859375 7.097656 C 23.851562 7.039062 23.851562 6.988281 23.851562 6.957031 L 23.851562 6.941406 C 23.8125 6.421875 23.820312 5.84375 24.167969 5.480469 C 24.363281 5.269531 24.632812 5.160156 24.96875 5.160156 C 25.1875 5.160156 25.449219 5.203125 25.773438 5.300781 L 25.789062 5.300781 L 26.175781 5.441406 L 26.253906 5.671875 C 26.3125 5.84375 26.417969 6.015625 26.53125 6.191406 C 26.597656 6.304688 26.671875 6.421875 26.738281 6.546875 C 27.113281 7.261719 27.023438 7.921875 26.46875 8.507812 C 26.542969 8.484375 26.628906 8.472656 26.710938 8.472656 C 26.941406 8.472656 27.152344 8.566406 27.300781 8.746094 C 27.542969 9.027344 27.550781 9.363281 27.308594 9.75 C 27.300781 9.761719 27.296875 9.777344 27.289062 9.785156 C 27.019531 10.296875 26.574219 10.574219 26.070312 10.574219 Z M 26.070312 10.574219 "/>
<path style=" stroke:none;fill-rule:nonzero;fill:rgb(98.431373%,75.294118%,5.098039%);fill-opacity:1;" d="M 25.773438 5.851562 C 25.890625 6.199219 26.125 6.488281 26.289062 6.808594 C 26.621094 7.433594 26.449219 7.878906 25.96875 8.308594 C 25.765625 8.484375 25.449219 8.671875 25.683594 9.011719 C 25.890625 9.316406 26.183594 9.214844 26.460938 9.085938 C 26.621094 9.011719 26.785156 8.953125 26.921875 9.109375 C 27.0625 9.273438 26.925781 9.429688 26.851562 9.5625 C 26.433594 10.289062 25.621094 10.230469 25.125 9.414062 C 24.691406 8.6875 24.488281 7.886719 24.382812 7.046875 C 24.375 7.007812 24.382812 6.964844 24.382812 6.917969 C 24.292969 5.71875 24.609375 5.464844 25.773438 5.851562 C 25.765625 5.84375 25.773438 5.851562 25.773438 5.851562 Z M 25.75 7.15625 C 25.675781 6.941406 25.683594 6.496094 25.238281 6.429688 C 24.878906 6.378906 25.023438 6.734375 25.007812 6.925781 C 24.984375 7.289062 24.992188 7.714844 25.449219 7.789062 C 25.710938 7.824219 25.757812 7.519531 25.75 7.15625 Z M 25.75 7.15625 "/>
<path style=" stroke:none;fill-rule:nonzero;fill:rgb(6.27451%,27.058824%,55.686275%);fill-opacity:1;" d="M 31.722656 9.332031 C 31.242188 9.332031 30.828125 9.066406 30.542969 8.574219 C 30.140625 7.871094 30.109375 7.097656 30.085938 6.355469 C 30.085938 6.25 30.078125 6.148438 30.070312 6.042969 L 30.070312 6.015625 C 30.070312 5.960938 30.070312 5.917969 30.070312 5.867188 C 30.078125 5.367188 30.085938 4.746094 30.417969 4.148438 C 30.722656 3.59375 31.160156 3.511719 31.390625 3.511719 C 31.65625 3.511719 31.933594 3.617188 32.179688 3.816406 C 32.710938 4.230469 32.871094 4.824219 32.980469 5.347656 C 33.066406 5.730469 32.863281 6.125 32.503906 6.289062 C 32.410156 6.324219 32.316406 6.347656 32.21875 6.347656 C 32.007812 6.347656 31.855469 6.257812 31.75 6.164062 C 31.722656 6.46875 31.714844 6.769531 31.765625 7.0625 C 31.878906 6.980469 32.015625 6.914062 32.195312 6.914062 C 32.285156 6.914062 32.367188 6.925781 32.449219 6.957031 C 32.808594 7.089844 33.011719 7.425781 33.003906 7.847656 C 32.996094 8.226562 32.976562 9.007812 32.128906 9.265625 C 31.992188 9.308594 31.855469 9.332031 31.722656 9.332031 Z M 31.722656 9.332031 "/>
<path style=" stroke:none;fill-rule:nonzero;fill:rgb(98.431373%,75.294118%,5.098039%);fill-opacity:1;" d="M 30.597656 6.019531 C 30.613281 5.523438 30.589844 4.921875 30.882812 4.386719 C 31.113281 3.957031 31.488281 3.914062 31.863281 4.210938 C 32.253906 4.523438 32.382812 4.980469 32.480469 5.441406 C 32.507812 5.597656 32.425781 5.746094 32.292969 5.804688 C 32.128906 5.878906 32.050781 5.695312 31.953125 5.597656 C 31.59375 5.242188 31.347656 5.265625 31.285156 5.71875 C 31.203125 6.296875 31.152344 6.898438 31.347656 7.484375 C 31.464844 7.839844 31.648438 8.003906 31.933594 7.625 C 32.03125 7.5 32.121094 7.378906 32.277344 7.4375 C 32.441406 7.5 32.496094 7.65625 32.496094 7.839844 C 32.488281 8.242188 32.449219 8.636719 31.984375 8.777344 C 31.535156 8.917969 31.210938 8.6875 31 8.324219 C 30.605469 7.632812 30.632812 6.867188 30.597656 6.019531 Z M 30.597656 6.019531 "/>
<path style=" stroke:none;fill-rule:nonzero;fill:rgb(6.27451%,27.058824%,55.686275%);fill-opacity:1;" d="M 34.460938 9.308594 C 34.226562 9.308594 33.980469 9.230469 33.734375 9.074219 C 32.980469 8.597656 32.800781 7.832031 32.726562 7.304688 C 32.601562 6.339844 32.878906 5.480469 33.140625 4.640625 C 33.175781 4.523438 33.214844 4.402344 33.253906 4.292969 C 33.363281 3.921875 33.734375 3.691406 34.210938 3.691406 C 34.648438 3.691406 35.21875 3.882812 35.519531 4.304688 C 35.628906 4.460938 35.691406 4.617188 35.742188 4.75 C 35.765625 4.804688 35.78125 4.847656 35.796875 4.886719 L 35.832031 4.96875 L 35.839844 5.054688 C 35.902344 5.835938 35.902344 6.636719 35.832031 7.445312 L 35.824219 7.515625 L 35.804688 7.582031 C 35.765625 7.675781 35.726562 7.78125 35.699219 7.878906 C 35.617188 8.109375 35.535156 8.335938 35.4375 8.566406 C 35.171875 9.222656 34.707031 9.308594 34.460938 9.308594 Z M 34.460938 9.308594 "/>
<path style=" stroke:none;fill-rule:nonzero;fill:rgb(98.431373%,75.294118%,5.098039%);fill-opacity:1;" d="M 35.324219 5.09375 C 35.25 4.929688 35.195312 4.746094 35.097656 4.597656 C 34.789062 4.164062 33.867188 4.046875 33.746094 4.433594 C 33.46875 5.347656 33.109375 6.25 33.246094 7.230469 C 33.320312 7.789062 33.5 8.308594 34.011719 8.636719 C 34.414062 8.886719 34.761719 8.859375 34.964844 8.375 C 35.097656 8.054688 35.203125 7.730469 35.324219 7.402344 C 35.382812 6.636719 35.382812 5.867188 35.324219 5.09375 Z M 34.445312 7.722656 C 34.332031 8.003906 34.085938 7.921875 33.925781 7.691406 C 33.800781 7.507812 33.851562 7.296875 33.84375 7.179688 C 33.84375 6.496094 34.023438 5.933594 34.144531 5.359375 C 34.175781 5.203125 34.265625 5.054688 34.476562 5.046875 C 34.699219 5.042969 34.746094 5.203125 34.789062 5.359375 C 35 6.191406 34.738281 6.972656 34.445312 7.722656 Z M 34.445312 7.722656 "/>
<path style=" stroke:none;fill-rule:nonzero;fill:rgb(6.27451%,27.058824%,55.686275%);fill-opacity:1;" d="M 56.226562 34.953125 L 55.925781 34.910156 L 55.910156 34.488281 C 55.894531 34.078125 55.886719 33.722656 56.136719 33.46875 C 56.171875 33.433594 56.210938 33.394531 56.269531 33.367188 C 55.738281 33.21875 55.6875 32.78125 55.679688 32.625 C 55.679688 32.328125 55.796875 32.148438 55.894531 32.042969 C 56.046875 31.894531 56.25 31.820312 56.503906 31.820312 C 56.617188 31.820312 56.722656 31.835938 56.8125 31.84375 C 56.855469 31.851562 56.921875 31.859375 56.945312 31.859375 C 57.074219 31.859375 57.203125 31.859375 57.328125 31.851562 C 57.546875 31.851562 57.777344 31.84375 58.003906 31.84375 C 58.484375 31.84375 59.113281 31.851562 59.753906 31.933594 C 60.324219 32.007812 60.660156 32.296875 60.757812 32.808594 C 60.789062 32.957031 60.855469 33.097656 60.96875 33.234375 C 61.207031 33.523438 61.296875 33.8125 61.238281 34.109375 C 61.148438 34.578125 60.707031 34.804688 60.5625 34.878906 C 60.1875 35.074219 59.804688 35.097656 59.542969 35.097656 L 59.40625 35.097656 C 59.265625 35.097656 59.121094 35.097656 58.980469 35.097656 C 58.835938 35.097656 58.695312 35.097656 58.550781 35.097656 C 57.980469 35.097656 57.472656 35.089844 56.976562 35.042969 L 56.992188 35.503906 Z M 56.226562 34.953125 "/>
<path style=" stroke:none;fill-rule:nonzero;fill:rgb(98.431373%,75.294118%,5.098039%);fill-opacity:1;" d="M 56.4375 34.464844 C 56.414062 33.746094 56.445312 33.671875 57.140625 33.847656 C 57.847656 34.027344 58.566406 33.921875 59.273438 34.078125 C 59.535156 34.136719 59.714844 33.9375 59.78125 33.730469 C 59.851562 33.523438 59.648438 33.402344 59.46875 33.34375 C 58.65625 33.089844 57.847656 32.855469 56.984375 32.882812 C 56.691406 32.890625 56.210938 32.949219 56.203125 32.609375 C 56.195312 32.179688 56.691406 32.363281 56.953125 32.363281 C 57.863281 32.355469 58.777344 32.328125 59.683594 32.4375 C 59.992188 32.476562 60.179688 32.578125 60.238281 32.898438 C 60.285156 33.144531 60.398438 33.359375 60.554688 33.558594 C 60.894531 33.960938 60.691406 34.226562 60.308594 34.429688 C 60.066406 34.554688 59.796875 34.582031 59.527344 34.582031 C 58.5 34.582031 57.464844 34.621094 56.4375 34.464844 Z M 56.4375 34.464844 "/>
<path style=" stroke:none;fill-rule:nonzero;fill:rgb(6.27451%,27.058824%,55.686275%);fill-opacity:1;" d="M 18.78125 14.886719 C 18.507812 14.886719 18.246094 14.804688 18.027344 14.65625 C 16.925781 13.890625 16.132812 12.761719 15.660156 11.316406 C 15.5 10.824219 15.742188 10.335938 16.257812 10.097656 C 16.445312 10.015625 16.65625 9.972656 16.882812 9.972656 C 17.453125 9.972656 18.105469 10.261719 18.570312 10.734375 C 18.953125 11.121094 19.167969 11.582031 19.167969 12.027344 C 19.183594 12.257812 19.132812 12.457031 19.058594 12.652344 C 19.132812 12.621094 19.214844 12.605469 19.304688 12.605469 C 19.441406 12.605469 19.566406 12.644531 19.695312 12.71875 C 20.046875 12.925781 20.210938 13.3125 20.136719 13.78125 C 20.046875 14.394531 19.445312 14.886719 18.78125 14.886719 Z M 18.78125 14.886719 "/>
<path style=" stroke:none;fill-rule:nonzero;fill:rgb(98.431373%,75.294118%,5.098039%);fill-opacity:1;" d="M 18.652344 12.035156 C 18.675781 12.324219 18.523438 12.59375 18.351562 12.851562 C 18.210938 13.074219 18.21875 13.289062 18.441406 13.4375 C 18.652344 13.585938 18.863281 13.566406 19.035156 13.34375 C 19.132812 13.222656 19.214844 13.023438 19.425781 13.140625 C 19.621094 13.261719 19.65625 13.46875 19.628906 13.683594 C 19.542969 14.234375 18.824219 14.558594 18.335938 14.21875 C 17.25 13.460938 16.566406 12.382812 16.160156 11.144531 C 16.070312 10.878906 16.234375 10.667969 16.484375 10.550781 C 17.277344 10.203125 18.667969 11.113281 18.652344 12.035156 Z M 17.023438 11.457031 C 17.039062 11.835938 17.460938 12.398438 17.714844 12.363281 C 17.894531 12.332031 18.007812 12.222656 18.015625 12.035156 C 18.027344 11.777344 17.414062 11.121094 17.179688 11.144531 C 16.949219 11.160156 17.054688 11.34375 17.023438 11.457031 Z M 17.023438 11.457031 "/>
<path style=" stroke:none;fill-rule:nonzero;fill:rgb(6.27451%,27.058824%,55.686275%);fill-opacity:1;" d="M 17.308594 16.578125 C 17.015625 16.578125 16.738281 16.453125 16.476562 16.214844 C 16.199219 15.957031 15.90625 15.6875 15.628906 15.429688 C 15.222656 15.050781 14.796875 14.664062 14.390625 14.269531 C 13.863281 13.765625 13.722656 12.636719 14.105469 12.066406 C 14.269531 11.820312 14.539062 11.6875 14.832031 11.6875 C 15.027344 11.6875 15.230469 11.746094 15.417969 11.851562 C 15.449219 11.863281 15.484375 11.886719 15.53125 11.910156 C 15.757812 12.019531 16.09375 12.199219 16.207031 12.554688 C 16.25 12.695312 16.273438 12.917969 16.136719 13.171875 C 16.027344 13.386719 16.035156 13.429688 16.371094 13.78125 C 16.410156 13.816406 16.4375 13.855469 16.476562 13.890625 C 16.84375 14.277344 17.21875 14.640625 17.617188 15.035156 C 17.789062 15.199219 17.953125 15.367188 18.125 15.539062 L 18.554688 15.960938 L 18.074219 16.320312 C 17.828125 16.484375 17.5625 16.578125 17.308594 16.578125 Z M 17.308594 16.578125 "/>
<path style=" stroke:none;fill-rule:nonzero;fill:rgb(98.431373%,75.294118%,5.098039%);fill-opacity:1;" d="M 17.765625 15.886719 C 17.398438 16.164062 17.113281 16.105469 16.835938 15.84375 C 16.144531 15.191406 15.441406 14.558594 14.757812 13.898438 C 14.414062 13.566406 14.292969 12.71875 14.539062 12.355469 C 14.699219 12.125 14.984375 12.191406 15.164062 12.296875 C 15.402344 12.4375 15.867188 12.585938 15.679688 12.925781 C 15.34375 13.558594 15.757812 13.875 16.101562 14.234375 C 16.632812 14.789062 17.195312 15.324219 17.765625 15.886719 Z M 17.765625 15.886719 "/>
<path style=" stroke:none;fill-rule:nonzero;fill:rgb(6.27451%,27.058824%,55.686275%);fill-opacity:1;" d="M 10.503906 27.753906 C 9.820312 27.753906 8.921875 27.714844 8.003906 27.425781 C 7.984375 27.417969 7.953125 27.410156 7.929688 27.402344 C 7.808594 27.375 7.644531 27.328125 7.496094 27.226562 C 7.234375 27.046875 7.121094 26.757812 7.1875 26.453125 C 7.21875 26.3125 7.367188 25.875 8.011719 25.832031 C 7.894531 25.785156 7.773438 25.734375 7.652344 25.6875 C 7.636719 25.683594 7.621094 25.675781 7.609375 25.675781 C 7.503906 25.636719 7.359375 25.585938 7.234375 25.480469 C 7.007812 25.296875 6.917969 25.011719 6.992188 24.738281 C 7.097656 24.359375 7.433594 24.121094 7.871094 24.121094 C 7.953125 24.121094 8.027344 24.128906 8.109375 24.144531 C 8.34375 24.1875 8.566406 24.25 8.777344 24.308594 C 8.859375 24.332031 8.949219 24.351562 9.039062 24.375 L 9.355469 24.457031 L 9.371094 24.539062 C 10.160156 24.835938 10.910156 25.207031 11.636719 25.570312 C 11.847656 25.675781 12.058594 25.777344 12.265625 25.882812 L 12.5 25.992188 L 12.550781 26.238281 C 12.558594 26.261719 12.574219 26.304688 12.589844 26.34375 C 12.65625 26.503906 12.761719 26.789062 12.640625 27.121094 L 12.597656 27.25 L 12.492188 27.335938 C 12.070312 27.695312 11.585938 27.746094 11.253906 27.753906 C 10.953125 27.746094 10.722656 27.753906 10.503906 27.753906 Z M 10.503906 27.753906 "/>
<path style=" stroke:none;fill-rule:nonzero;fill:rgb(98.431373%,75.294118%,5.098039%);fill-opacity:1;" d="M 12.042969 26.320312 C 12.078125 26.519531 12.230469 26.699219 12.148438 26.921875 C 11.882812 27.144531 11.570312 27.210938 11.230469 27.21875 C 10.195312 27.25 9.160156 27.25 8.164062 26.929688 C 7.96875 26.863281 7.636719 26.824219 7.699219 26.550781 C 7.75 26.320312 8.058594 26.304688 8.28125 26.335938 C 8.734375 26.394531 9.175781 26.476562 9.625 26.542969 C 9.851562 26.574219 10.152344 26.617188 10.234375 26.371094 C 10.332031 26.082031 10.007812 26.03125 9.804688 25.949219 C 9.152344 25.6875 8.5 25.453125 7.847656 25.191406 C 7.691406 25.125 7.441406 25.066406 7.503906 24.84375 C 7.5625 24.621094 7.808594 24.582031 8.027344 24.621094 C 8.328125 24.679688 8.964844 24.953125 9.039062 24.933594 C 10.070312 25.324219 11.042969 25.84375 12.042969 26.320312 Z M 12.042969 26.320312 "/>
<path style=" stroke:none;fill-rule:nonzero;fill:rgb(6.27451%,27.058824%,55.686275%);fill-opacity:1;" d="M 11.667969 25.183594 C 10.390625 25.183594 9.421875 24.5625 8.546875 23.921875 C 8.171875 23.648438 7.960938 23.328125 7.914062 22.972656 C 7.871094 22.617188 7.996094 22.265625 8.289062 21.925781 L 8.449219 21.738281 L 8.589844 21.746094 L 8.660156 21.730469 C 8.980469 21.664062 9.363281 21.589844 9.746094 21.589844 C 10.40625 21.589844 10.953125 21.796875 11.410156 22.222656 L 11.464844 22.265625 L 11.5 22.324219 C 11.605469 22.488281 11.652344 22.660156 11.683594 22.816406 C 11.695312 22.792969 11.71875 22.769531 11.734375 22.75 L 11.863281 22.601562 L 12.058594 22.578125 C 12.117188 22.570312 12.183594 22.5625 12.238281 22.5625 C 12.777344 22.5625 13.371094 22.90625 13.390625 23.871094 C 13.40625 24.582031 12.996094 25.042969 12.230469 25.15625 C 12.042969 25.167969 11.855469 25.183594 11.667969 25.183594 Z M 11.667969 25.183594 "/>
<path style=" stroke:none;fill-rule:nonzero;fill:rgb(98.431373%,75.294118%,5.098039%);fill-opacity:1;" d="M 11.066406 22.585938 C 11.261719 22.890625 11.132812 23.253906 11.246094 23.589844 C 11.351562 23.914062 11.433594 24.1875 11.839844 24.09375 C 12.214844 24.003906 12.199219 23.707031 12.085938 23.417969 C 12.042969 23.296875 12.035156 23.179688 12.132812 23.074219 C 12.746094 23 12.875 23.476562 12.890625 23.871094 C 12.898438 24.25 12.761719 24.546875 12.167969 24.628906 C 10.820312 24.820312 9.835938 24.210938 8.851562 23.5 C 8.367188 23.140625 8.277344 22.726562 8.6875 22.242188 C 8.71875 22.242188 8.75 22.238281 8.777344 22.214844 C 9.582031 22.050781 10.382812 21.960938 11.066406 22.585938 Z M 9.65625 22.621094 C 9.507812 22.621094 9.265625 22.570312 9.304688 22.867188 C 9.371094 23.445312 9.941406 23.417969 10.316406 23.601562 C 10.480469 23.683594 10.632812 23.601562 10.660156 23.386719 C 10.707031 23.0625 10.195312 22.667969 9.65625 22.621094 Z M 9.65625 22.621094 "/>
<path style=" stroke:none;fill-rule:nonzero;fill:rgb(6.27451%,27.058824%,55.686275%);fill-opacity:1;" d="M 10.453125 31.152344 C 10.398438 31.152344 10.347656 31.152344 10.292969 31.144531 C 10.082031 31.125 9.867188 31.109375 9.632812 31.101562 C 9.167969 31.078125 8.695312 31.058594 8.199219 30.910156 L 8.1875 30.910156 C 8.09375 30.910156 7.929688 30.910156 7.765625 30.8125 C 7.742188 30.804688 7.691406 30.796875 7.652344 30.789062 C 7.464844 30.753906 7.15625 30.691406 6.984375 30.410156 C 6.910156 30.285156 6.835938 30.085938 6.917969 29.792969 C 7 29.484375 7.234375 29.28125 7.523438 29.253906 C 7.519531 29.246094 7.503906 29.246094 7.496094 29.238281 C 7.300781 29.171875 6.714844 28.972656 6.789062 28.339844 C 6.8125 28.160156 6.941406 27.582031 7.816406 27.582031 L 7.847656 27.582031 C 8.394531 27.589844 8.980469 27.605469 9.542969 27.699219 C 10.097656 27.796875 10.644531 27.929688 11.230469 28.074219 C 11.441406 28.125 11.660156 28.175781 11.882812 28.226562 C 11.988281 28.25 12.066406 28.339844 12.070312 28.445312 L 12.132812 28.976562 C 12.148438 29.121094 12.085938 29.261719 11.96875 29.347656 C 11.953125 29.355469 11.945312 29.371094 11.9375 29.378906 C 11.9375 29.402344 11.953125 29.429688 11.96875 29.484375 C 12.085938 29.78125 12.035156 30.128906 11.824219 30.433594 C 11.53125 30.863281 10.976562 31.152344 10.453125 31.152344 Z M 10.453125 31.152344 "/>
<path style=" stroke:none;fill-rule:nonzero;fill:rgb(98.431373%,75.294118%,5.098039%);fill-opacity:1;" d="M 11.523438 28.671875 C 11.667969 28.710938 11.703125 28.882812 11.597656 28.976562 C 11.398438 29.15625 11.367188 29.355469 11.488281 29.660156 C 11.667969 30.105469 10.953125 30.699219 10.355469 30.625 C 9.679688 30.542969 8.988281 30.613281 8.328125 30.402344 C 8.230469 30.375 8.101562 30.410156 8.027344 30.359375 C 7.808594 30.226562 7.308594 30.320312 7.421875 29.914062 C 7.519531 29.566406 7.871094 29.882812 8.101562 29.871094 C 8.847656 29.816406 9.574219 29.871094 10.308594 29.898438 C 10.457031 29.90625 10.601562 29.875 10.644531 29.699219 C 10.675781 29.550781 10.5625 29.46875 10.472656 29.402344 C 10.0625 29.113281 9.589844 28.976562 9.085938 28.957031 C 8.628906 28.941406 8.171875 28.917969 7.734375 28.761719 C 7.546875 28.695312 7.277344 28.636719 7.308594 28.382812 C 7.335938 28.109375 7.636719 28.078125 7.847656 28.078125 C 8.386719 28.085938 8.929688 28.101562 9.460938 28.191406 C 10.113281 28.324219 10.765625 28.496094 11.523438 28.671875 Z M 11.523438 28.671875 "/>
<path style=" stroke:none;fill-rule:nonzero;fill:rgb(6.27451%,27.058824%,55.686275%);fill-opacity:1;" d="M 44.101562 11.84375 C 43.914062 11.84375 43.726562 11.796875 43.554688 11.699219 C 43.109375 11.472656 42.839844 11.046875 42.8125 10.527344 C 42.773438 9.882812 42.894531 9.304688 43.164062 8.789062 C 43.589844 7.980469 43.996094 7.253906 44.582031 6.617188 L 44.980469 6.882812 L 45.0625 6.453125 C 45.054688 6.453125 45.046875 6.453125 45.046875 6.453125 C 45.078125 6.453125 45.152344 6.429688 45.210938 6.414062 C 45.332031 6.386719 45.472656 6.347656 45.640625 6.347656 C 45.945312 6.347656 46.210938 6.480469 46.398438 6.734375 C 46.886719 7.386719 46.757812 8.136719 46.613281 8.640625 C 46.472656 9.148438 46.328125 9.59375 45.960938 9.867188 C 45.683594 10.074219 45.355469 10.132812 44.933594 10.164062 C 45.03125 10.230469 45.121094 10.320312 45.1875 10.445312 C 45.265625 10.59375 45.316406 10.847656 45.144531 11.175781 C 44.933594 11.589844 44.527344 11.84375 44.101562 11.84375 Z M 44.101562 11.84375 "/>
<path style=" stroke:none;fill-rule:nonzero;fill:rgb(98.431373%,75.294118%,5.098039%);fill-opacity:1;" d="M 44.964844 6.972656 C 45.300781 7.03125 45.691406 6.667969 45.976562 7.054688 C 46.316406 7.5 46.246094 8.039062 46.113281 8.515625 C 45.828125 9.539062 45.660156 9.628906 44.597656 9.675781 C 44.492188 9.683594 44.386719 9.675781 44.289062 9.695312 C 44.050781 9.757812 43.867188 9.917969 43.863281 10.164062 C 43.855469 10.378906 44.078125 10.460938 44.25 10.492188 C 44.527344 10.542969 44.859375 10.578125 44.671875 10.945312 C 44.507812 11.253906 44.152344 11.449219 43.777344 11.25 C 43.5 11.101562 43.335938 10.847656 43.3125 10.503906 C 43.285156 9.984375 43.367188 9.488281 43.605469 9.042969 C 44.003906 8.308594 44.402344 7.582031 44.964844 6.972656 C 44.964844 6.964844 44.964844 6.972656 44.964844 6.972656 Z M 44.890625 9.082031 C 44.925781 9.074219 44.996094 9.082031 45.039062 9.050781 C 45.445312 8.789062 45.59375 8.375 45.707031 7.945312 C 45.746094 7.8125 45.65625 7.683594 45.519531 7.683594 C 45.09375 7.683594 44.996094 8.09375 44.777344 8.332031 C 44.679688 8.441406 44.621094 8.613281 44.597656 8.769531 C 44.550781 8.953125 44.65625 9.074219 44.890625 9.082031 Z M 44.890625 9.082031 "/>
<path style=" stroke:none;fill-rule:nonzero;fill:rgb(6.27451%,27.058824%,55.686275%);fill-opacity:1;" d="M 46.269531 13.125 C 45.578125 13.125 45.023438 12.605469 44.964844 11.917969 C 44.941406 11.625 45.007812 11.398438 45.167969 11.226562 C 45.300781 11.078125 45.488281 11.003906 45.699219 11.003906 C 45.835938 11.003906 45.976562 11.039062 46.128906 11.105469 C 46.03125 10.253906 46.261719 9.539062 46.546875 8.992188 L 46.359375 8.933594 L 46.929688 8.359375 L 47.117188 8.09375 L 47.449219 8.195312 C 47.46875 8.1875 47.507812 8.167969 47.53125 8.160156 C 47.664062 8.09375 47.859375 7.996094 48.117188 7.996094 C 48.214844 7.996094 48.308594 8.011719 48.402344 8.039062 C 48.949219 8.203125 49.257812 8.554688 49.324219 9.085938 C 49.398438 9.742188 49.210938 10.214844 48.777344 10.503906 C 48.617188 10.609375 48.46875 10.660156 48.316406 10.660156 C 48.183594 10.660156 48.0625 10.625 47.957031 10.550781 C 47.957031 10.773438 47.949219 10.988281 47.964844 11.203125 C 48.011719 11.925781 47.679688 12.503906 46.996094 12.933594 C 46.78125 13.050781 46.53125 13.125 46.269531 13.125 Z M 46.269531 13.125 "/>
<path style=" stroke:none;fill-rule:nonzero;fill:rgb(98.431373%,75.294118%,5.098039%);fill-opacity:1;" d="M 47.34375 8.695312 C 47.671875 8.796875 47.882812 8.410156 48.265625 8.523438 C 48.632812 8.636719 48.78125 8.828125 48.820312 9.140625 C 48.859375 9.488281 48.828125 9.859375 48.5 10.066406 C 48.226562 10.246094 48.207031 10.046875 48.214844 9.824219 C 48.21875 9.621094 48.324219 9.296875 47.972656 9.308594 C 47.6875 9.324219 47.441406 9.496094 47.457031 9.867188 C 47.46875 10.320312 47.433594 10.773438 47.460938 11.21875 C 47.5 11.804688 47.199219 12.191406 46.734375 12.480469 C 46.203125 12.816406 45.542969 12.503906 45.488281 11.878906 C 45.460938 11.464844 45.722656 11.449219 46.015625 11.621094 C 46.488281 11.894531 46.75 11.625 46.683594 11.234375 C 46.511719 10.261719 46.824219 9.457031 47.351562 8.695312 C 47.351562 8.6875 47.34375 8.695312 47.34375 8.695312 Z M 47.34375 8.695312 "/>
<path style=" stroke:none;fill-rule:nonzero;fill:rgb(6.27451%,27.058824%,55.686275%);fill-opacity:1;" d="M 41.460938 10.410156 C 41.386719 10.410156 41.316406 10.402344 41.242188 10.378906 C 41.039062 10.328125 40.875 10.195312 40.777344 10.007812 C 40.628906 9.734375 40.648438 9.398438 40.726562 9.183594 C 41.078125 8.109375 41.492188 6.957031 42.082031 5.886719 C 42.203125 5.671875 42.441406 5.421875 42.914062 5.421875 C 42.992188 5.421875 43.066406 5.425781 43.125 5.425781 C 43.140625 5.425781 43.164062 5.425781 43.179688 5.433594 C 43.253906 5.421875 43.335938 5.414062 43.402344 5.414062 C 43.636719 5.414062 43.855469 5.5 44.003906 5.65625 C 44.125 5.785156 44.257812 6.015625 44.230469 6.390625 C 44.230469 6.421875 44.230469 6.480469 44.238281 6.535156 C 44.25 6.757812 44.273438 7.097656 44.019531 7.363281 C 43.855469 7.542969 43.621094 7.632812 43.320312 7.632812 C 43.304688 7.632812 43.285156 7.632812 43.269531 7.632812 C 43.261719 7.632812 43.253906 7.632812 43.246094 7.632812 C 43.140625 7.632812 43.109375 7.632812 43.011719 7.90625 C 42.902344 8.234375 42.773438 8.554688 42.652344 8.863281 C 42.546875 9.132812 42.441406 9.40625 42.347656 9.683594 C 42.179688 10.140625 41.851562 10.410156 41.460938 10.410156 Z M 41.460938 10.410156 "/>
<path style=" stroke:none;fill-rule:nonzero;fill:rgb(98.431373%,75.294118%,5.098039%);fill-opacity:1;" d="M 43.230469 5.953125 C 43.570312 5.859375 43.734375 6.019531 43.710938 6.355469 C 43.6875 6.667969 43.882812 7.136719 43.285156 7.121094 C 42.820312 7.105469 42.652344 7.363281 42.519531 7.742188 C 42.316406 8.335938 42.066406 8.925781 41.851562 9.519531 C 41.769531 9.757812 41.59375 9.957031 41.378906 9.898438 C 41.175781 9.835938 41.152344 9.546875 41.210938 9.355469 C 41.574219 8.257812 41.96875 7.164062 42.535156 6.140625 C 42.691406 5.859375 42.96875 5.945312 43.230469 5.953125 Z M 43.230469 5.953125 "/>
<path style=" stroke:none;fill-rule:nonzero;fill:rgb(98.431373%,75.294118%,5.098039%);fill-opacity:1;" d="M 41.199219 3.609375 C 41.363281 3.765625 41.316406 3.957031 41.308594 4.136719 C 41.28125 4.789062 40.644531 5.910156 41.40625 6.109375 C 41.4375 6.167969 41.414062 6.414062 41.347656 6.46875 C 40.558594 6.511719 40.410156 7.90625 40.15625 8.730469 C 40.066406 9.019531 40.164062 9.578125 39.652344 9.472656 C 39.246094 9.390625 39.449219 8.945312 39.480469 8.636719 C 39.539062 7.824219 40.003906 7.0625 39.78125 6.214844 C 39.757812 6.132812 39.824219 6.007812 39.878906 5.925781 C 40.296875 5.332031 40.507812 4.640625 40.726562 3.964844 C 40.792969 3.75 40.882812 3.519531 41.199219 3.609375 Z M 41.199219 3.609375 "/>
<path style=" stroke:none;fill-rule:nonzero;fill:rgb(98.431373%,75.294118%,5.098039%);fill-opacity:1;" d="M 9.640625 16.691406 C 9.84375 16.59375 10.007812 16.707031 10.179688 16.773438 C 10.789062 17.03125 11.613281 18.019531 12.078125 17.382812 C 12.148438 17.375 12.371094 17.484375 12.394531 17.558594 C 12.160156 18.300781 13.421875 18.933594 14.113281 19.46875 C 14.351562 19.652344 14.914062 19.757812 14.636719 20.195312 C 14.421875 20.542969 14.066406 20.195312 13.78125 20.0625 C 13.039062 19.71875 12.484375 19.015625 11.597656 18.933594 C 11.515625 18.925781 11.417969 18.820312 11.359375 18.738281 C 10.945312 18.136719 10.375 17.699219 9.804688 17.261719 C 9.632812 17.121094 9.445312 16.957031 9.640625 16.691406 Z M 9.640625 16.691406 "/>
<path style=" stroke:none;fill-rule:nonzero;fill:rgb(88.235294%,65.490196%,36.470588%);fill-opacity:1;" d="M 30.304688 37.597656 L 30.304688 38.488281 C 30.542969 38.964844 31.730469 40.851562 34.054688 40.851562 C 36.386719 40.851562 37.597656 38.527344 37.804688 38.015625 L 37.804688 36.898438 C 36.539062 37.449219 35.089844 37.792969 33.132812 37.792969 C 32.292969 37.796875 31.355469 37.730469 30.304688 37.597656 Z M 30.304688 37.597656 "/>
<path style=" stroke:none;fill-rule:nonzero;fill:rgb(98.431373%,75.294118%,5.098039%);fill-opacity:1;" d="M 38.257812 37.878906 C 38.496094 37.804688 38.738281 37.71875 38.96875 37.636719 C 40.867188 36.929688 40.371094 34.488281 40.074219 33.46875 L 40.058594 33.410156 C 39.675781 32.105469 38.886719 30.261719 37.304688 29.214844 C 37.160156 29.121094 37.019531 29.039062 36.859375 28.957031 C 36.019531 28.519531 34.976562 28.296875 33.695312 28.445312 C 31.632812 28.6875 30.25 29.699219 29.34375 30.773438 C 29.230469 30.910156 29.117188 31.050781 29.019531 31.183594 C 28.054688 32.503906 27.753906 33.804688 27.746094 33.828125 L 27.746094 33.832031 C 27.324219 35.535156 27.445312 36.804688 28.097656 37.589844 C 28.59375 38.191406 29.296875 38.378906 29.726562 38.4375 C 29.953125 38.46875 30.101562 38.46875 30.101562 38.46875 L 30.132812 38.46875 C 30.160156 38.46875 30.199219 38.472656 30.230469 38.472656 C 33.769531 38.765625 35.9375 38.527344 37.730469 38.019531 C 37.917969 37.984375 38.089844 37.933594 38.257812 37.878906 Z M 38.257812 37.878906 "/>
<path style=" stroke:none;fill-rule:nonzero;fill:rgb(54.901961%,40.784314%,23.137255%);fill-opacity:1;" d="M 50.765625 30.210938 C 50.75 30.167969 50.734375 30.128906 50.71875 30.085938 C 50.207031 28.726562 49.203125 27.179688 47.246094 27.179688 C 47.199219 27.179688 47.148438 27.179688 47.101562 27.179688 C 46.433594 27.203125 45.308594 27.25 44.328125 27.152344 C 43.980469 27.121094 43.660156 27.070312 43.375 26.996094 C 43.375 26.996094 43.375 27.003906 43.367188 27.003906 C 43.359375 26.996094 43.351562 26.996094 43.34375 26.988281 C 43.199219 26.953125 43.066406 26.90625 42.953125 26.855469 C 42.894531 26.832031 42.839844 26.804688 42.796875 26.773438 C 42.632812 27.242188 42.539062 27.738281 42.539062 28.25 C 42.539062 28.289062 42.539062 28.316406 42.539062 28.355469 C 42.546875 28.59375 42.570312 28.828125 42.609375 29.058594 C 42.894531 30.625 43.988281 31.910156 45.453125 32.484375 C 45.609375 32.542969 45.765625 32.59375 45.933594 32.636719 C 46.308594 32.734375 46.703125 32.792969 47.117188 32.792969 C 47.335938 32.792969 47.554688 32.78125 47.769531 32.75 C 47.996094 32.71875 48.214844 32.667969 48.421875 32.609375 C 48.625 32.550781 48.820312 32.476562 49.007812 32.394531 C 49.171875 32.320312 49.332031 32.238281 49.488281 32.148438 C 50.066406 31.800781 50.570312 31.324219 50.945312 30.765625 C 50.9375 30.753906 50.9375 30.738281 50.929688 30.722656 C 50.875 30.550781 50.824219 30.390625 50.765625 30.210938 Z M 50.765625 30.210938 "/>
<path style=" stroke:none;fill-rule:nonzero;fill:rgb(30.980392%,23.137255%,12.941176%);fill-opacity:1;" d="M 49.609375 22.222656 C 46.855469 21.398438 44.230469 23.722656 44.191406 23.75 C 42.984375 24.851562 42.535156 25.546875 42.429688 26 C 42.382812 26.1875 42.398438 26.328125 42.441406 26.4375 C 42.457031 26.46875 42.472656 26.5 42.488281 26.519531 C 42.554688 26.625 42.652344 26.707031 42.78125 26.789062 C 42.832031 26.816406 42.886719 26.847656 42.9375 26.871094 C 43.058594 26.921875 43.1875 26.964844 43.328125 27.003906 C 43.335938 27.011719 43.34375 27.011719 43.351562 27.019531 C 43.351562 27.019531 43.351562 27.011719 43.359375 27.011719 C 43.644531 27.085938 43.964844 27.136719 44.3125 27.167969 C 45.292969 27.261719 46.425781 27.21875 47.085938 27.195312 C 47.132812 27.195312 47.183594 27.195312 47.230469 27.195312 C 49.195312 27.195312 50.203125 28.734375 50.703125 30.097656 C 50.71875 30.144531 50.734375 30.179688 50.75 30.226562 C 50.808594 30.394531 50.863281 30.566406 50.90625 30.730469 C 50.914062 30.746094 50.914062 30.761719 50.921875 30.773438 C 50.929688 30.789062 50.929688 30.8125 50.9375 30.828125 C 50.988281 31.042969 51.101562 30.871094 51.28125 30.78125 C 51.558594 30.640625 52.851562 27.167969 52.886719 26.046875 C 52.894531 25.867188 52.902344 25.71875 52.910156 25.613281 C 53 24.851562 52.285156 23.023438 49.609375 22.222656 Z M 49.609375 22.222656 "/>
<path style=" stroke:none;fill-rule:nonzero;fill:rgb(80.784314%,30.196078%,9.803922%);fill-opacity:1;" d="M 29.988281 23.386719 L 29.988281 23.3125 L 29.980469 23 L 29.980469 22.988281 C 29.980469 22.988281 29.972656 22.914062 29.972656 22.792969 C 29.957031 22.296875 29.988281 20.921875 30.632812 19.742188 C 31.339844 18.433594 32.765625 17.566406 34.984375 17.089844 C 36.5 16.765625 36.890625 17.664062 37.078125 18.101562 C 37.117188 18.183594 37.144531 18.25 37.175781 18.300781 C 37.28125 18.507812 37.589844 19.824219 37.695312 21.078125 C 38.007812 20.558594 38.460938 19.824219 38.421875 19.328125 C 38.210938 16.253906 36.382812 14.515625 34.878906 13.601562 L 34.867188 13.59375 C 34.828125 13.570312 34.257812 13.195312 33.34375 13.195312 C 32.980469 13.195312 32.578125 13.253906 32.121094 13.410156 C 31.902344 13.484375 31.675781 13.558594 31.460938 13.625 C 29.890625 14.121094 28.40625 14.597656 27.632812 17.003906 C 26.898438 19.28125 27.023438 21.722656 27.601562 22.933594 C 27.683594 23.105469 27.769531 23.246094 27.867188 23.363281 C 27.941406 23.453125 28.015625 23.527344 28.097656 23.589844 C 28.398438 23.796875 29.628906 23.824219 30.183594 23.789062 C 30.078125 23.609375 30.019531 23.476562 29.988281 23.417969 Z M 29.988281 23.386719 "/>
<path style=" stroke:none;fill-rule:nonzero;fill:rgb(97.254902%,80%,45.098039%);fill-opacity:1;" d="M 37.722656 21.945312 C 37.730469 21.671875 37.714844 21.375 37.695312 21.078125 C 37.589844 19.816406 37.28125 18.503906 37.175781 18.300781 C 37.140625 18.25 37.117188 18.191406 37.078125 18.101562 C 36.890625 17.671875 36.5 16.773438 34.984375 17.089844 C 32.765625 17.566406 31.339844 18.433594 30.632812 19.742188 C 29.996094 20.921875 29.964844 22.296875 29.972656 22.792969 C 29.972656 22.914062 29.980469 22.980469 29.980469 22.988281 L 29.980469 23 L 29.988281 23.3125 L 29.988281 23.425781 C 30.011719 23.484375 30.070312 23.625 30.183594 23.796875 C 30.191406 23.8125 30.199219 23.816406 30.207031 23.832031 C 30.296875 23.972656 30.417969 24.136719 30.574219 24.308594 C 30.632812 24.375 30.703125 24.441406 30.777344 24.507812 C 30.84375 24.566406 30.917969 24.628906 31 24.6875 C 31.113281 24.769531 31.242188 24.851562 31.375 24.925781 C 31.773438 25.140625 32.285156 25.304688 32.914062 25.339844 C 33.726562 25.382812 34.503906 25.25 35.1875 25.007812 C 35.472656 24.902344 35.742188 24.777344 35.992188 24.636719 C 36.125 24.5625 36.253906 24.480469 36.375 24.398438 C 36.589844 24.242188 36.785156 24.078125 36.957031 23.90625 C 37.214844 23.648438 37.417969 23.363281 37.535156 23.074219 C 37.589844 22.957031 37.613281 22.832031 37.648438 22.71875 C 37.777344 22.332031 37.722656 21.945312 37.722656 21.945312 Z M 37.722656 21.945312 "/>
<path style=" stroke:none;fill-rule:nonzero;fill:rgb(84.313725%,65.490196%,38.431373%);fill-opacity:1;" d="M 23.296875 27.761719 C 22.855469 27.539062 22.386719 27.5 21.902344 27.664062 C 20.332031 28.175781 19.117188 30.582031 19.066406 30.679688 L 19.050781 30.707031 C 18.621094 31.933594 18.21875 32.578125 17.886719 32.914062 C 17.796875 33.007812 17.714844 33.078125 17.632812 33.128906 C 17.738281 33.234375 17.839844 33.335938 17.953125 33.441406 C 18.089844 33.558594 18.230469 33.671875 18.382812 33.773438 C 18.53125 33.886719 18.695312 33.980469 18.855469 34.070312 C 19.363281 34.355469 19.921875 34.53125 20.503906 34.589844 C 20.648438 34.605469 20.789062 34.613281 20.933594 34.613281 C 21.015625 34.613281 21.105469 34.613281 21.1875 34.605469 C 21.675781 34.578125 22.140625 34.464844 22.574219 34.28125 C 22.75 34.207031 22.921875 34.125 23.09375 34.027344 C 24.847656 33.023438 26.066406 30.847656 26.066406 28.324219 C 26.066406 28.273438 26.066406 28.222656 26.066406 28.167969 C 26.035156 28.175781 25.996094 28.183594 25.96875 28.191406 C 25.277344 28.347656 24.277344 28.257812 23.296875 27.761719 Z M 23.296875 27.761719 "/>
<path style=" stroke:none;fill-rule:nonzero;fill:rgb(38.431373%,28.627451%,16.470588%);fill-opacity:1;" d="M 26.898438 27.398438 C 26.890625 27.277344 26.882812 27.136719 26.867188 26.988281 C 26.859375 26.9375 26.859375 26.882812 26.851562 26.824219 C 26.828125 26.660156 26.800781 26.484375 26.746094 26.296875 C 26.726562 26.203125 26.6875 26.105469 26.65625 26 C 26.5 25.570312 26.238281 25.109375 25.78125 24.671875 C 25.644531 24.539062 25.488281 24.40625 25.308594 24.277344 C 24.578125 23.742188 23.507812 23.253906 21.921875 22.925781 C 21.171875 22.769531 20.488281 22.703125 19.867188 22.703125 C 16.363281 22.703125 14.9375 24.863281 14.832031 25.273438 C 14.816406 25.324219 14.804688 25.382812 14.78125 25.453125 C 14.53125 26.320312 13.773438 28.964844 16.4375 32.734375 L 16.445312 32.75 C 16.445312 32.757812 16.804688 33.320312 17.292969 33.261719 C 17.347656 33.253906 17.414062 33.238281 17.488281 33.210938 C 17.535156 33.1875 17.585938 33.164062 17.640625 33.128906 C 17.714844 33.078125 17.804688 33.007812 17.894531 32.914062 C 18.222656 32.570312 18.628906 31.925781 19.058594 30.707031 L 19.070312 30.679688 C 19.125 30.574219 20.339844 28.175781 21.90625 27.664062 C 22.386719 27.507812 22.859375 27.539062 23.304688 27.761719 C 24.285156 28.257812 25.277344 28.347656 25.980469 28.183594 C 26.011719 28.175781 26.050781 28.167969 26.078125 28.160156 C 26.222656 28.125 26.351562 28.074219 26.460938 28.011719 C 26.5 27.992188 26.53125 27.976562 26.566406 27.953125 C 26.726562 27.851562 26.921875 27.679688 26.90625 27.433594 Z M 26.898438 27.398438 "/>
</g>
</svg>
